<svg width="328" height="208" viewBox="0 0 328 208" fill="none" xmlns="http://www.w3.org/2000/svg">
<rect width="328" height="208" rx="16" fill="url(#paint0_linear_18_6913)"/>
<path d="M19.152 39V27.08H24.176C24.9653 27.08 25.6373 27.2187 26.192 27.496C26.7573 27.7627 27.1893 28.1467 27.488 28.648C27.7973 29.1387 27.952 29.736 27.952 30.44C27.952 30.984 27.8027 31.496 27.504 31.976C27.216 32.4453 26.752 32.8347 26.112 33.144V32.136C26.6987 32.36 27.1627 32.6373 27.504 32.968C27.8453 33.2987 28.0853 33.6667 28.224 34.072C28.3627 34.4773 28.432 34.904 28.432 35.352C28.432 36.4933 28.0533 37.3893 27.296 38.04C26.5493 38.68 25.5093 39 24.176 39H19.152ZM21.328 37.08H24.4C24.9653 37.08 25.4133 36.9253 25.744 36.616C26.0853 36.296 26.256 35.8747 26.256 35.352C26.256 34.8293 26.0853 34.408 25.744 34.088C25.4133 33.768 24.9653 33.608 24.4 33.608H21.328V37.08ZM21.328 31.704H24.288C24.736 31.704 25.0933 31.576 25.36 31.32C25.6267 31.0533 25.76 30.712 25.76 30.296C25.76 29.88 25.6267 29.5493 25.36 29.304C25.0933 29.0587 24.736 28.936 24.288 28.936H21.328V31.704ZM32.6785 39.192C32.0705 39.192 31.5425 39.0907 31.0945 38.888C30.6465 38.6853 30.2998 38.3973 30.0545 38.024C29.8092 37.64 29.6865 37.1973 29.6865 36.696C29.6865 36.216 29.7932 35.7893 30.0065 35.416C30.2198 35.032 30.5505 34.712 30.9985 34.456C31.4465 34.2 32.0118 34.0187 32.6945 33.912L35.5425 33.448V35.048L33.0945 35.464C32.6785 35.5387 32.3692 35.672 32.1665 35.864C31.9638 36.056 31.8625 36.3067 31.8625 36.616C31.8625 36.9147 31.9745 37.1547 32.1985 37.336C32.4332 37.5067 32.7212 37.592 33.0625 37.592C33.4998 37.592 33.8838 37.5013 34.2145 37.32C34.5558 37.128 34.8172 36.8667 34.9985 36.536C35.1905 36.2053 35.2865 35.8427 35.2865 35.448V33.208C35.2865 32.8347 35.1372 32.5253 34.8385 32.28C34.5505 32.024 34.1665 31.896 33.6865 31.896C33.2385 31.896 32.8385 32.0187 32.4865 32.264C32.1452 32.4987 31.8945 32.8133 31.7345 33.208L30.0225 32.376C30.1932 31.9173 30.4598 31.5227 30.8225 31.192C31.1958 30.8507 31.6332 30.584 32.1345 30.392C32.6358 30.2 33.1798 30.104 33.7665 30.104C34.4812 30.104 35.1105 30.2373 35.6545 30.504C36.1985 30.76 36.6198 31.1227 36.9185 31.592C37.2278 32.0507 37.3825 32.5893 37.3825 33.208V39H35.3985V37.512L35.8465 37.48C35.6225 37.8533 35.3558 38.168 35.0465 38.424C34.7372 38.6693 34.3852 38.8613 33.9905 39C33.5958 39.128 33.1585 39.192 32.6785 39.192ZM39.3198 39V30.296H41.2878V32.008L41.1278 31.704C41.3304 31.1813 41.6611 30.7867 42.1198 30.52C42.5891 30.2427 43.1331 30.104 43.7518 30.104C44.3918 30.104 44.9571 30.2427 45.4478 30.52C45.9491 30.7973 46.3384 31.1867 46.6158 31.688C46.8931 32.1787 47.0318 32.7493 47.0318 33.4V39H44.9358V33.896C44.9358 33.512 44.8611 33.1813 44.7118 32.904C44.5624 32.6267 44.3544 32.4133 44.0878 32.264C43.8318 32.104 43.5278 32.024 43.1758 32.024C42.8344 32.024 42.5304 32.104 42.2638 32.264C41.9971 32.4133 41.7891 32.6267 41.6398 32.904C41.4904 33.1813 41.4158 33.512 41.4158 33.896V39H39.3198ZM48.8041 39V26.888H50.9001V34.824L50.1001 34.584L54.1961 30.296H56.8041L53.5881 33.8L56.8681 39H54.4681L51.6201 34.488L52.8681 34.232L50.2441 37.048L50.9001 35.768V39H48.8041ZM58.0385 39V30.296H60.1345V39H58.0385ZM58.0385 29.32V27.08H60.1345V29.32H58.0385ZM64.7098 39.192C64.1018 39.192 63.5738 39.0907 63.1258 38.888C62.6778 38.6853 62.3311 38.3973 62.0858 38.024C61.8404 37.64 61.7178 37.1973 61.7178 36.696C61.7178 36.216 61.8244 35.7893 62.0378 35.416C62.2511 35.032 62.5818 34.712 63.0298 34.456C63.4778 34.2 64.0431 34.0187 64.7258 33.912L67.5738 33.448V35.048L65.1258 35.464C64.7098 35.5387 64.4004 35.672 64.1978 35.864C63.9951 36.056 63.8938 36.3067 63.8938 36.616C63.8938 36.9147 64.0058 37.1547 64.2298 37.336C64.4644 37.5067 64.7524 37.592 65.0938 37.592C65.5311 37.592 65.9151 37.5013 66.2458 37.32C66.5871 37.128 66.8484 36.8667 67.0298 36.536C67.2218 36.2053 67.3178 35.8427 67.3178 35.448V33.208C67.3178 32.8347 67.1684 32.5253 66.8698 32.28C66.5818 32.024 66.1978 31.896 65.7178 31.896C65.2698 31.896 64.8698 32.0187 64.5178 32.264C64.1764 32.4987 63.9258 32.8133 63.7658 33.208L62.0538 32.376C62.2244 31.9173 62.4911 31.5227 62.8538 31.192C63.2271 30.8507 63.6644 30.584 64.1658 30.392C64.6671 30.2 65.2111 30.104 65.7977 30.104C66.5124 30.104 67.1418 30.2373 67.6858 30.504C68.2298 30.76 68.6511 31.1227 68.9498 31.592C69.2591 32.0507 69.4138 32.5893 69.4138 33.208V39H67.4298V37.512L67.8778 37.48C67.6538 37.8533 67.3871 38.168 67.0778 38.424C66.7684 38.6693 66.4164 38.8613 66.0218 39C65.6271 39.128 65.1898 39.192 64.7098 39.192Z" fill="#F2F2FF"/>
<path d="M296.712 34.7232C299.389 33.7981 301.319 31.2432 301.319 28.2698C301.319 26.0012 300.222 23.9969 298.511 22.7635C298.643 22.7855 298.797 22.8076 298.928 22.8076C299.937 22.8076 300.771 21.9926 300.771 20.9795C300.771 19.9663 299.937 19.1514 298.928 19.1514C297.919 19.1514 297.086 19.9663 297.086 20.9795C297.086 21.42 297.239 21.8385 297.524 22.1688C296.603 21.7063 295.55 21.442 294.431 21.442C290.636 21.442 287.542 24.5035 287.542 28.2918C287.542 32.0141 290.548 35.0535 294.255 35.1417C292.456 35.9125 291.184 37.6966 291.184 39.7669C291.184 42.5421 293.444 44.7887 296.23 44.7887C299.016 44.7887 301.276 42.5421 301.276 39.7669C301.319 37.1019 299.301 34.9434 296.712 34.7232ZM289.692 28.2478C289.692 25.6268 291.82 23.5124 294.453 23.5124C297.086 23.5124 299.213 25.6488 299.213 28.2478C299.213 30.8468 297.086 33.0052 294.453 33.0052C291.82 33.0052 289.692 30.8688 289.692 28.2478ZM296.274 42.6522C294.65 42.6522 293.334 41.3307 293.334 39.7229C293.334 38.1151 294.65 36.7936 296.274 36.7936C297.897 36.7936 299.213 38.1151 299.213 39.7229C299.213 41.3527 297.897 42.6522 296.274 42.6522Z" fill="#F2F2FF"/>
<path d="M25.584 108.288C24.288 108.288 23.16 108.048 22.2 107.568C21.256 107.072 20.52 106.408 19.992 105.576C19.48 104.744 19.224 103.832 19.224 102.84C19.224 101.672 19.536 100.688 20.16 99.888C20.784 99.072 21.688 98.472 22.872 98.088L22.68 98.88C21.832 98.608 21.16 98.08 20.664 97.296C20.184 96.512 19.944 95.648 19.944 94.704C19.944 93.76 20.184 92.92 20.664 92.184C21.144 91.448 21.808 90.872 22.656 90.456C23.504 90.04 24.48 89.832 25.584 89.832C26.672 89.832 27.632 90.04 28.464 90.456C29.312 90.872 29.976 91.448 30.456 92.184C30.952 92.92 31.2 93.76 31.2 94.704C31.2 95.664 30.952 96.536 30.456 97.32C29.976 98.088 29.312 98.616 28.464 98.904L28.296 98.064C29.48 98.48 30.384 99.096 31.008 99.912C31.632 100.712 31.944 101.696 31.944 102.864C31.944 103.856 31.68 104.768 31.152 105.6C30.64 106.416 29.904 107.072 28.944 107.568C28 108.048 26.88 108.288 25.584 108.288ZM25.584 105.528C26.208 105.528 26.752 105.416 27.216 105.192C27.68 104.952 28.04 104.624 28.296 104.208C28.552 103.776 28.68 103.288 28.68 102.744C28.68 102.184 28.552 101.704 28.296 101.304C28.04 100.888 27.68 100.568 27.216 100.344C26.752 100.104 26.208 99.984 25.584 99.984C24.96 99.984 24.416 100.104 23.952 100.344C23.504 100.568 23.152 100.888 22.896 101.304C22.64 101.704 22.512 102.184 22.512 102.744C22.512 103.288 22.64 103.776 22.896 104.208C23.152 104.624 23.504 104.952 23.952 105.192C24.416 105.416 24.96 105.528 25.584 105.528ZM25.584 97.224C26.048 97.224 26.456 97.12 26.808 96.912C27.16 96.704 27.432 96.432 27.624 96.096C27.832 95.744 27.936 95.344 27.936 94.896C27.936 94.448 27.832 94.056 27.624 93.72C27.432 93.368 27.16 93.096 26.808 92.904C26.456 92.696 26.048 92.592 25.584 92.592C25.12 92.592 24.704 92.696 24.336 92.904C23.984 93.096 23.704 93.368 23.496 93.72C23.304 94.056 23.208 94.448 23.208 94.896C23.208 95.344 23.304 95.744 23.496 96.096C23.704 96.432 23.984 96.704 24.336 96.912C24.704 97.12 25.12 97.224 25.584 97.224ZM34.8921 108L42.3321 92.88H33.9081V90.12H45.7641V92.88L38.4921 108H34.8921ZM52.623 108.288C51.407 108.288 50.327 108.032 49.383 107.52C48.455 106.992 47.727 106.288 47.199 105.408C46.671 104.512 46.407 103.496 46.407 102.36C46.407 101.784 46.463 101.208 46.575 100.632C46.703 100.056 46.927 99.44 47.247 98.784C47.583 98.128 48.063 97.4 48.687 96.6L53.679 90.12H57.567L51.495 97.92L50.967 97.344C51.191 97.168 51.423 97.032 51.663 96.936C51.903 96.824 52.143 96.744 52.383 96.696C52.639 96.648 52.903 96.624 53.175 96.624C54.263 96.624 55.231 96.872 56.079 97.368C56.927 97.864 57.591 98.544 58.071 99.408C58.567 100.256 58.815 101.216 58.815 102.288C58.815 103.44 58.551 104.472 58.023 105.384C57.495 106.28 56.759 106.992 55.815 107.52C54.887 108.032 53.823 108.288 52.623 108.288ZM52.623 105.336C53.167 105.336 53.655 105.216 54.087 104.976C54.535 104.72 54.887 104.36 55.143 103.896C55.415 103.432 55.551 102.912 55.551 102.336C55.551 101.728 55.415 101.208 55.143 100.776C54.887 100.328 54.543 99.976 54.111 99.72C53.679 99.464 53.183 99.336 52.623 99.336C52.079 99.336 51.583 99.464 51.135 99.72C50.687 99.976 50.327 100.328 50.055 100.776C49.799 101.208 49.671 101.728 49.671 102.336C49.671 102.912 49.799 103.432 50.055 103.896C50.327 104.36 50.687 104.72 51.135 104.976C51.583 105.216 52.079 105.336 52.623 105.336ZM66.8445 108.288C65.8685 108.288 64.9405 108.112 64.0605 107.76C63.1965 107.392 62.4525 106.88 61.8285 106.224C61.2205 105.552 60.8045 104.76 60.5805 103.848L63.4365 102.84C63.7245 103.656 64.1645 104.28 64.7565 104.712C65.3485 105.128 66.0445 105.336 66.8445 105.336C67.4845 105.336 68.0365 105.216 68.5005 104.976C68.9805 104.736 69.3565 104.392 69.6285 103.944C69.9005 103.48 70.0365 102.936 70.0365 102.312C70.0365 101.688 69.9005 101.16 69.6285 100.728C69.3725 100.28 69.0045 99.936 68.5245 99.696C68.0445 99.456 67.4765 99.336 66.8205 99.336C66.5165 99.336 66.1965 99.368 65.8605 99.432C65.5405 99.496 65.2525 99.592 64.9965 99.72L64.2525 98.16L68.8845 92.88H61.5885V90.12H72.5565V92.688L67.9005 98.136L67.9485 96.912C69.0205 96.928 69.9565 97.16 70.7565 97.608C71.5565 98.056 72.1805 98.672 72.6285 99.456C73.0765 100.24 73.3005 101.16 73.3005 102.216C73.3005 103.368 73.0205 104.408 72.4605 105.336C71.9005 106.248 71.1325 106.968 70.1565 107.496C69.1805 108.024 68.0765 108.288 66.8445 108.288ZM79.854 108V105.528L84.702 100.464C85.662 99.456 86.398 98.656 86.91 98.064C87.438 97.456 87.806 96.936 88.014 96.504C88.222 96.072 88.326 95.632 88.326 95.184C88.326 94.432 88.086 93.84 87.606 93.408C87.142 92.976 86.542 92.76 85.806 92.76C85.038 92.76 84.374 92.984 83.814 93.432C83.254 93.864 82.846 94.504 82.59 95.352L79.734 94.464C79.926 93.52 80.318 92.704 80.91 92.016C81.502 91.312 82.222 90.776 83.07 90.408C83.934 90.024 84.846 89.832 85.806 89.832C86.958 89.832 87.966 90.04 88.83 90.456C89.71 90.872 90.39 91.456 90.87 92.208C91.366 92.96 91.614 93.84 91.614 94.848C91.614 95.488 91.494 96.12 91.254 96.744C91.014 97.368 90.654 98.008 90.174 98.664C89.694 99.304 89.07 100.024 88.302 100.824L84.102 105.24H91.854V108H79.854ZM94.7983 108L102.238 92.88H93.8143V90.12H105.67V92.88L98.3983 108H94.7983ZM113.509 108.288C112.533 108.288 111.605 108.112 110.725 107.76C109.861 107.392 109.117 106.88 108.493 106.224C107.885 105.552 107.469 104.76 107.245 103.848L110.101 102.84C110.389 103.656 110.829 104.28 111.421 104.712C112.013 105.128 112.709 105.336 113.509 105.336C114.149 105.336 114.701 105.216 115.165 104.976C115.645 104.736 116.021 104.392 116.293 103.944C116.565 103.48 116.701 102.936 116.701 102.312C116.701 101.688 116.565 101.16 116.293 100.728C116.037 100.28 115.669 99.936 115.189 99.696C114.709 99.456 114.141 99.336 113.485 99.336C113.181 99.336 112.861 99.368 112.525 99.432C112.205 99.496 111.917 99.592 111.661 99.72L110.917 98.16L115.549 92.88H108.253V90.12H119.221V92.688L114.565 98.136L114.613 96.912C115.685 96.928 116.621 97.16 117.421 97.608C118.221 98.056 118.845 98.672 119.293 99.456C119.741 100.24 119.965 101.16 119.965 102.216C119.965 103.368 119.685 104.408 119.125 105.336C118.565 106.248 117.797 106.968 116.821 107.496C115.845 108.024 114.741 108.288 113.509 108.288ZM128.396 108.288C127.18 108.288 126.1 108.032 125.156 107.52C124.228 106.992 123.5 106.288 122.972 105.408C122.444 104.512 122.18 103.496 122.18 102.36C122.18 101.784 122.236 101.208 122.348 100.632C122.476 100.056 122.7 99.44 123.02 98.784C123.356 98.128 123.836 97.4 124.46 96.6L129.452 90.12H133.34L127.268 97.92L126.74 97.344C126.964 97.168 127.196 97.032 127.436 96.936C127.676 96.824 127.916 96.744 128.156 96.696C128.412 96.648 128.676 96.624 128.948 96.624C130.036 96.624 131.004 96.872 131.852 97.368C132.7 97.864 133.364 98.544 133.844 99.408C134.34 100.256 134.588 101.216 134.588 102.288C134.588 103.44 134.324 104.472 133.796 105.384C133.268 106.28 132.532 106.992 131.588 107.52C130.66 108.032 129.596 108.288 128.396 108.288ZM128.396 105.336C128.94 105.336 129.428 105.216 129.86 104.976C130.308 104.72 130.66 104.36 130.916 103.896C131.188 103.432 131.324 102.912 131.324 102.336C131.324 101.728 131.188 101.208 130.916 100.776C130.66 100.328 130.316 99.976 129.884 99.72C129.452 99.464 128.956 99.336 128.396 99.336C127.852 99.336 127.356 99.464 126.908 99.72C126.46 99.976 126.1 100.328 125.828 100.776C125.572 101.208 125.444 101.728 125.444 102.336C125.444 102.912 125.572 103.432 125.828 103.896C126.1 104.36 126.46 104.72 126.908 104.976C127.356 105.216 127.852 105.336 128.396 105.336ZM142.108 108L148.18 100.176L148.732 100.752C148.492 100.928 148.26 101.072 148.036 101.184C147.812 101.296 147.572 101.376 147.316 101.424C147.06 101.472 146.788 101.496 146.5 101.496C145.412 101.496 144.444 101.248 143.596 100.752C142.748 100.256 142.076 99.584 141.58 98.736C141.1 97.872 140.86 96.896 140.86 95.808C140.86 94.656 141.124 93.632 141.652 92.736C142.196 91.84 142.932 91.136 143.86 90.624C144.804 90.096 145.876 89.832 147.076 89.832C148.292 89.832 149.364 90.088 150.292 90.6C151.22 91.112 151.948 91.816 152.476 92.712C153.02 93.592 153.292 94.608 153.292 95.76C153.292 96.336 153.228 96.912 153.1 97.488C152.972 98.064 152.74 98.68 152.404 99.336C152.084 99.976 151.62 100.704 151.012 101.52L146.02 108H142.108ZM147.076 98.76C147.636 98.76 148.132 98.64 148.564 98.4C149.012 98.144 149.364 97.792 149.62 97.344C149.876 96.88 150.004 96.36 150.004 95.784C150.004 95.176 149.868 94.648 149.596 94.2C149.34 93.752 148.996 93.4 148.564 93.144C148.132 92.888 147.636 92.76 147.076 92.76C146.532 92.76 146.036 92.888 145.588 93.144C145.14 93.4 144.78 93.752 144.508 94.2C144.252 94.648 144.124 95.176 144.124 95.784C144.124 96.36 144.252 96.88 144.508 97.344C144.78 97.792 145.14 98.144 145.588 98.4C146.036 98.64 146.532 98.76 147.076 98.76ZM161.873 108.288C160.577 108.288 159.449 108.048 158.489 107.568C157.545 107.072 156.809 106.408 156.281 105.576C155.769 104.744 155.513 103.832 155.513 102.84C155.513 101.672 155.825 100.688 156.449 99.888C157.073 99.072 157.977 98.472 159.161 98.088L158.969 98.88C158.121 98.608 157.449 98.08 156.953 97.296C156.473 96.512 156.233 95.648 156.233 94.704C156.233 93.76 156.473 92.92 156.953 92.184C157.433 91.448 158.097 90.872 158.945 90.456C159.793 90.04 160.769 89.832 161.873 89.832C162.961 89.832 163.921 90.04 164.753 90.456C165.601 90.872 166.265 91.448 166.745 92.184C167.241 92.92 167.489 93.76 167.489 94.704C167.489 95.664 167.241 96.536 166.745 97.32C166.265 98.088 165.601 98.616 164.753 98.904L164.585 98.064C165.769 98.48 166.673 99.096 167.297 99.912C167.921 100.712 168.233 101.696 168.233 102.864C168.233 103.856 167.969 104.768 167.441 105.6C166.929 106.416 166.193 107.072 165.233 107.568C164.289 108.048 163.169 108.288 161.873 108.288ZM161.873 105.528C162.497 105.528 163.041 105.416 163.505 105.192C163.969 104.952 164.329 104.624 164.585 104.208C164.841 103.776 164.969 103.288 164.969 102.744C164.969 102.184 164.841 101.704 164.585 101.304C164.329 100.888 163.969 100.568 163.505 100.344C163.041 100.104 162.497 99.984 161.873 99.984C161.249 99.984 160.705 100.104 160.241 100.344C159.793 100.568 159.441 100.888 159.185 101.304C158.929 101.704 158.801 102.184 158.801 102.744C158.801 103.288 158.929 103.776 159.185 104.208C159.441 104.624 159.793 104.952 160.241 105.192C160.705 105.416 161.249 105.528 161.873 105.528ZM161.873 97.224C162.337 97.224 162.745 97.12 163.097 96.912C163.449 96.704 163.721 96.432 163.913 96.096C164.121 95.744 164.225 95.344 164.225 94.896C164.225 94.448 164.121 94.056 163.913 93.72C163.721 93.368 163.449 93.096 163.097 92.904C162.745 92.696 162.337 92.592 161.873 92.592C161.409 92.592 160.993 92.696 160.625 92.904C160.273 93.096 159.993 93.368 159.785 93.72C159.593 94.056 159.497 94.448 159.497 94.896C159.497 95.344 159.593 95.744 159.785 96.096C159.993 96.432 160.273 96.704 160.625 96.912C160.993 97.12 161.409 97.224 161.873 97.224ZM171.181 108L178.621 92.88H170.197V90.12H182.053V92.88L174.781 108H171.181ZM189.891 108.288C188.915 108.288 187.987 108.112 187.107 107.76C186.243 107.392 185.499 106.88 184.875 106.224C184.267 105.552 183.851 104.76 183.627 103.848L186.483 102.84C186.771 103.656 187.211 104.28 187.803 104.712C188.395 105.128 189.091 105.336 189.891 105.336C190.531 105.336 191.083 105.216 191.547 104.976C192.027 104.736 192.403 104.392 192.675 103.944C192.947 103.48 193.083 102.936 193.083 102.312C193.083 101.688 192.947 101.16 192.675 100.728C192.419 100.28 192.051 99.936 191.571 99.696C191.091 99.456 190.523 99.336 189.867 99.336C189.563 99.336 189.243 99.368 188.907 99.432C188.587 99.496 188.299 99.592 188.043 99.72L187.299 98.16L191.931 92.88H184.635V90.12H195.603V92.688L190.947 98.136L190.995 96.912C192.067 96.928 193.003 97.16 193.803 97.608C194.603 98.056 195.227 98.672 195.675 99.456C196.123 100.24 196.347 101.16 196.347 102.216C196.347 103.368 196.067 104.408 195.507 105.336C194.947 106.248 194.179 106.968 193.203 107.496C192.227 108.024 191.123 108.288 189.891 108.288ZM210.293 108.288C208.869 108.288 207.621 107.904 206.549 107.136C205.477 106.368 204.637 105.288 204.029 103.896C203.437 102.504 203.141 100.888 203.141 99.048C203.141 97.192 203.437 95.576 204.029 94.2C204.621 92.824 205.453 91.752 206.525 90.984C207.597 90.216 208.845 89.832 210.269 89.832C211.725 89.832 212.981 90.216 214.037 90.984C215.109 91.752 215.949 92.832 216.557 94.224C217.165 95.6 217.469 97.208 217.469 99.048C217.469 100.888 217.165 102.504 216.557 103.896C215.965 105.272 215.133 106.352 214.061 107.136C212.989 107.904 211.733 108.288 210.293 108.288ZM210.317 105.312C211.133 105.312 211.829 105.064 212.405 104.568C212.981 104.056 213.421 103.336 213.725 102.408C214.045 101.464 214.205 100.344 214.205 99.048C214.205 97.752 214.045 96.64 213.725 95.712C213.421 94.768 212.973 94.048 212.381 93.552C211.805 93.056 211.101 92.808 210.269 92.808C209.469 92.808 208.781 93.056 208.205 93.552C207.629 94.048 207.181 94.768 206.861 95.712C206.557 96.64 206.405 97.752 206.405 99.048C206.405 100.328 206.557 101.44 206.861 102.384C207.181 103.312 207.629 104.032 208.205 104.544C208.797 105.056 209.501 105.312 210.317 105.312ZM225.821 108.288C224.845 108.288 223.917 108.112 223.037 107.76C222.173 107.392 221.429 106.88 220.805 106.224C220.197 105.552 219.781 104.76 219.557 103.848L222.413 102.84C222.701 103.656 223.141 104.28 223.733 104.712C224.325 105.128 225.021 105.336 225.821 105.336C226.461 105.336 227.013 105.216 227.477 104.976C227.957 104.736 228.333 104.392 228.605 103.944C228.877 103.48 229.013 102.936 229.013 102.312C229.013 101.688 228.877 101.16 228.605 100.728C228.349 100.28 227.981 99.936 227.501 99.696C227.021 99.456 226.453 99.336 225.797 99.336C225.493 99.336 225.173 99.368 224.837 99.432C224.517 99.496 224.229 99.592 223.973 99.72L223.229 98.16L227.861 92.88H220.565V90.12H231.533V92.688L226.877 98.136L226.925 96.912C227.997 96.928 228.933 97.16 229.733 97.608C230.533 98.056 231.157 98.672 231.605 99.456C232.053 100.24 232.277 101.16 232.277 102.216C232.277 103.368 231.997 104.408 231.437 105.336C230.877 106.248 230.109 106.968 229.133 107.496C228.157 108.024 227.053 108.288 225.821 108.288ZM234.565 108V105.528L239.413 100.464C240.373 99.456 241.109 98.656 241.621 98.064C242.149 97.456 242.517 96.936 242.725 96.504C242.933 96.072 243.037 95.632 243.037 95.184C243.037 94.432 242.797 93.84 242.317 93.408C241.853 92.976 241.253 92.76 240.517 92.76C239.749 92.76 239.085 92.984 238.525 93.432C237.965 93.864 237.557 94.504 237.301 95.352L234.445 94.464C234.637 93.52 235.029 92.704 235.621 92.016C236.213 91.312 236.933 90.776 237.781 90.408C238.645 90.024 239.557 89.832 240.517 89.832C241.669 89.832 242.677 90.04 243.541 90.456C244.421 90.872 245.101 91.456 245.581 92.208C246.077 92.96 246.325 93.84 246.325 94.848C246.325 95.488 246.205 96.12 245.965 96.744C245.725 97.368 245.365 98.008 244.885 98.664C244.405 99.304 243.781 100.024 243.013 100.824L238.813 105.24H246.565V108H234.565ZM250.037 108L256.109 100.176L256.661 100.752C256.421 100.928 256.189 101.072 255.965 101.184C255.741 101.296 255.501 101.376 255.245 101.424C254.989 101.472 254.717 101.496 254.429 101.496C253.341 101.496 252.373 101.248 251.525 100.752C250.677 100.256 250.005 99.584 249.509 98.736C249.029 97.872 248.789 96.896 248.789 95.808C248.789 94.656 249.053 93.632 249.581 92.736C250.125 91.84 250.861 91.136 251.789 90.624C252.733 90.096 253.805 89.832 255.005 89.832C256.221 89.832 257.293 90.088 258.221 90.6C259.149 91.112 259.877 91.816 260.405 92.712C260.949 93.592 261.221 94.608 261.221 95.76C261.221 96.336 261.157 96.912 261.029 97.488C260.901 98.064 260.669 98.68 260.333 99.336C260.013 99.976 259.549 100.704 258.941 101.52L253.949 108H250.037ZM255.005 98.76C255.565 98.76 256.061 98.64 256.493 98.4C256.941 98.144 257.293 97.792 257.549 97.344C257.805 96.88 257.933 96.36 257.933 95.784C257.933 95.176 257.797 94.648 257.525 94.2C257.269 93.752 256.925 93.4 256.493 93.144C256.061 92.888 255.565 92.76 255.005 92.76C254.461 92.76 253.965 92.888 253.517 93.144C253.069 93.4 252.709 93.752 252.437 94.2C252.181 94.648 252.053 95.176 252.053 95.784C252.053 96.36 252.181 96.88 252.437 97.344C252.709 97.792 253.069 98.144 253.517 98.4C253.965 98.64 254.461 98.76 255.005 98.76Z" fill="#F2F2FF"/>
<path d="M18.576 158V152.04H19.424L22.704 156.456L22.264 156.544V152.04H23.352V158H22.496L19.264 153.552L19.664 153.464V158H18.576ZM27.4417 158.096C27.0044 158.096 26.5964 158.019 26.2177 157.864C25.839 157.709 25.5084 157.493 25.2257 157.216C24.943 156.939 24.7217 156.613 24.5617 156.24C24.407 155.861 24.3297 155.453 24.3297 155.016C24.3297 154.573 24.407 154.165 24.5617 153.792C24.7164 153.419 24.935 153.093 25.2177 152.816C25.5004 152.539 25.831 152.325 26.2097 152.176C26.5884 152.021 26.999 151.944 27.4417 151.944C27.8844 151.944 28.295 152.021 28.6737 152.176C29.0524 152.331 29.383 152.547 29.6657 152.824C29.9484 153.096 30.167 153.419 30.3217 153.792C30.4817 154.165 30.5617 154.573 30.5617 155.016C30.5617 155.453 30.4817 155.861 30.3217 156.24C30.1617 156.613 29.9404 156.939 29.6577 157.216C29.375 157.493 29.0444 157.709 28.6657 157.864C28.2924 158.019 27.8844 158.096 27.4417 158.096ZM27.4417 157.104C27.735 157.104 28.0044 157.053 28.2497 156.952C28.495 156.845 28.7084 156.699 28.8897 156.512C29.0764 156.325 29.2177 156.104 29.3137 155.848C29.415 155.592 29.4657 155.315 29.4657 155.016C29.4657 154.717 29.415 154.443 29.3137 154.192C29.2177 153.936 29.0764 153.715 28.8897 153.528C28.7084 153.336 28.495 153.189 28.2497 153.088C28.0044 152.987 27.735 152.936 27.4417 152.936C27.1537 152.936 26.887 152.987 26.6417 153.088C26.3964 153.189 26.1804 153.336 25.9937 153.528C25.8124 153.715 25.671 153.936 25.5697 154.192C25.4684 154.443 25.4177 154.717 25.4177 155.016C25.4177 155.315 25.4684 155.592 25.5697 155.848C25.671 156.104 25.8124 156.325 25.9937 156.512C26.1804 156.699 26.3964 156.845 26.6417 156.952C26.887 157.053 27.1537 157.104 27.4417 157.104ZM31.5291 158V152.04H32.5691L34.8011 155.072H34.3051L36.4891 152.04H37.5291V158H36.4331V153.28L36.8571 153.384L34.5931 156.4H34.4651L32.2571 153.384L32.6171 153.28V158H31.5291ZM38.6698 158V152.04H41.1818C41.5764 152.04 41.9124 152.109 42.1898 152.248C42.4724 152.381 42.6884 152.573 42.8378 152.824C42.9924 153.069 43.0698 153.368 43.0698 153.72C43.0698 153.992 42.9951 154.248 42.8458 154.488C42.7018 154.723 42.4698 154.917 42.1498 155.072V154.568C42.4431 154.68 42.6751 154.819 42.8458 154.984C43.0164 155.149 43.1364 155.333 43.2058 155.536C43.2751 155.739 43.3098 155.952 43.3098 156.176C43.3098 156.747 43.1204 157.195 42.7418 157.52C42.3684 157.84 41.8484 158 41.1818 158H38.6698ZM39.7578 157.04H41.2938C41.5764 157.04 41.8004 156.963 41.9658 156.808C42.1364 156.648 42.2218 156.437 42.2218 156.176C42.2218 155.915 42.1364 155.704 41.9658 155.544C41.8004 155.384 41.5764 155.304 41.2938 155.304H39.7578V157.04ZM39.7578 154.352H41.2378C41.4618 154.352 41.6404 154.288 41.7738 154.16C41.9071 154.027 41.9738 153.856 41.9738 153.648C41.9738 153.44 41.9071 153.275 41.7738 153.152C41.6404 153.029 41.4618 152.968 41.2378 152.968H39.7578V154.352ZM44.201 158V152.04H46.417C46.8223 152.04 47.1797 152.115 47.489 152.264C47.8037 152.408 48.049 152.621 48.225 152.904C48.401 153.181 48.489 153.52 48.489 153.92C48.489 154.331 48.3903 154.68 48.193 154.968C48.001 155.256 47.7397 155.469 47.409 155.608L48.777 158H47.545L46.081 155.384L46.785 155.8H45.289V158H44.201ZM45.289 154.84H46.433C46.6303 154.84 46.801 154.803 46.945 154.728C47.089 154.648 47.201 154.539 47.281 154.4C47.361 154.261 47.401 154.101 47.401 153.92C47.401 153.733 47.361 153.573 47.281 153.44C47.201 153.301 47.089 153.195 46.945 153.12C46.801 153.04 46.6303 153 46.433 153H45.289V154.84ZM49.4901 158V152.04H53.4501V153H50.5781V154.528H53.2901V155.488H50.5781V157.04H53.4501V158H49.4901Z" fill="#F2F2FF"/>
<path d="M18.546 180V178.25H19.148C19.596 178.25 19.9507 178.124 20.212 177.872C20.4827 177.611 20.618 177.265 20.618 176.836V169.57H22.536V176.766C22.536 177.41 22.396 177.975 22.116 178.46C21.8453 178.945 21.4533 179.323 20.94 179.594C20.436 179.865 19.8387 180 19.148 180H18.546ZM28.5221 180.168C27.7194 180.168 27.0054 180 26.3801 179.664C25.7641 179.328 25.2788 178.866 24.9241 178.278C24.5694 177.69 24.3921 177.023 24.3921 176.276V169.57H26.2961V176.178C26.2961 176.607 26.3894 176.995 26.5761 177.34C26.7721 177.685 27.0381 177.956 27.3741 178.152C27.7101 178.339 28.0928 178.432 28.5221 178.432C28.9608 178.432 29.3434 178.339 29.6701 178.152C30.0061 177.956 30.2674 177.685 30.4541 177.34C30.6501 176.995 30.7481 176.607 30.7481 176.178V169.57H32.6521V176.276C32.6521 177.023 32.4748 177.69 32.1201 178.278C31.7654 178.866 31.2754 179.328 30.6501 179.664C30.0341 180 29.3248 180.168 28.5221 180.168ZM33.4255 180L37.0235 169.57H39.4875L43.0855 180H41.0135L40.2715 177.76H36.2395L35.4835 180H33.4255ZM36.7855 176.08H39.7255L37.9895 170.886H38.5215L36.7855 176.08ZM44.2463 180V169.57H45.7303L51.4703 177.298L50.7003 177.452V169.57H52.6043V180H51.1063L45.4503 172.216L46.1503 172.062V180H44.2463ZM62.0535 180.168C61.3068 180.168 60.6162 180.033 59.9815 179.762C59.3468 179.491 58.7915 179.113 58.3155 178.628C57.8395 178.143 57.4662 177.573 57.1955 176.92C56.9342 176.267 56.8035 175.553 56.8035 174.778C56.8035 174.003 56.9295 173.289 57.1815 172.636C57.4428 171.973 57.8068 171.404 58.2735 170.928C58.7495 170.443 59.3048 170.069 59.9395 169.808C60.5742 169.537 61.2648 169.402 62.0115 169.402C62.7582 169.402 63.4255 169.528 64.0135 169.78C64.6108 170.032 65.1148 170.368 65.5255 170.788C65.9362 171.199 66.2302 171.651 66.4075 172.146L64.7135 172.958C64.5175 172.417 64.1862 171.978 63.7195 171.642C63.2528 171.306 62.6835 171.138 62.0115 171.138C61.3582 171.138 60.7795 171.292 60.2755 171.6C59.7808 171.908 59.3935 172.333 59.1135 172.874C58.8428 173.415 58.7075 174.05 58.7075 174.778C58.7075 175.506 58.8475 176.145 59.1275 176.696C59.4168 177.237 59.8135 177.662 60.3175 177.97C60.8215 178.278 61.4002 178.432 62.0535 178.432C62.5855 178.432 63.0755 178.329 63.5235 178.124C63.9715 177.909 64.3308 177.611 64.6015 177.228C64.8722 176.836 65.0075 176.374 65.0075 175.842V175.044L65.8755 175.8H62.0115V174.19H66.9115V175.24C66.9115 176.043 66.7762 176.752 66.5055 177.368C66.2348 177.984 65.8662 178.502 65.3995 178.922C64.9422 179.333 64.4242 179.645 63.8455 179.86C63.2668 180.065 62.6695 180.168 62.0535 180.168ZM67.4548 180L71.0528 169.57H73.5168L77.1148 180H75.0428L74.3008 177.76H70.2688L69.5128 180H67.4548ZM70.8148 176.08H73.7548L72.0188 170.886H72.5508L70.8148 176.08ZM78.2756 180V169.57H82.1536C82.8629 169.57 83.4882 169.701 84.0296 169.962C84.5802 170.214 85.0096 170.587 85.3176 171.082C85.6256 171.567 85.7796 172.16 85.7796 172.86C85.7796 173.579 85.6069 174.19 85.2616 174.694C84.9256 175.198 84.4682 175.571 83.8896 175.814L86.2836 180H84.1276L81.5656 175.422L82.7976 176.15H80.1796V180H78.2756ZM80.1796 174.47H82.1816C82.5269 174.47 82.8256 174.405 83.0776 174.274C83.3296 174.134 83.5256 173.943 83.6656 173.7C83.8056 173.457 83.8756 173.177 83.8756 172.86C83.8756 172.533 83.8056 172.253 83.6656 172.02C83.5256 171.777 83.3296 171.591 83.0776 171.46C82.8256 171.32 82.5269 171.25 82.1816 171.25H80.1796V174.47ZM92.4314 180.168C91.6848 180.168 90.9941 180.033 90.3594 179.762C89.7341 179.491 89.1834 179.113 88.7074 178.628C88.2408 178.143 87.8768 177.573 87.6154 176.92C87.3541 176.267 87.2234 175.553 87.2234 174.778C87.2234 174.003 87.3494 173.289 87.6014 172.636C87.8628 171.973 88.2268 171.404 88.6934 170.928C89.1694 170.443 89.7248 170.069 90.3594 169.808C90.9941 169.537 91.6848 169.402 92.4314 169.402C93.1781 169.402 93.8454 169.528 94.4334 169.78C95.0308 170.032 95.5348 170.368 95.9454 170.788C96.3561 171.199 96.6501 171.651 96.8274 172.146L95.1194 172.944C94.9234 172.421 94.5921 171.992 94.1254 171.656C93.6588 171.311 93.0941 171.138 92.4314 171.138C91.7781 171.138 91.1994 171.292 90.6954 171.6C90.2008 171.908 89.8134 172.333 89.5334 172.874C89.2628 173.415 89.1274 174.05 89.1274 174.778C89.1274 175.506 89.2628 176.145 89.5334 176.696C89.8134 177.237 90.2008 177.662 90.6954 177.97C91.1994 178.278 91.7781 178.432 92.4314 178.432C93.0941 178.432 93.6588 178.264 94.1254 177.928C94.5921 177.583 94.9234 177.149 95.1194 176.626L96.8274 177.424C96.6501 177.919 96.3561 178.376 95.9454 178.796C95.5348 179.207 95.0308 179.538 94.4334 179.79C93.8454 180.042 93.1781 180.168 92.4314 180.168ZM98.3732 180V169.57H100.277V180H98.3732ZM98.4292 168.212L99.3392 165.79H101.719L100.235 168.212H98.4292ZM101.429 180L105.027 169.57H107.491L111.089 180H109.017L108.275 177.76H104.243L103.487 180H101.429ZM104.789 176.08H107.729L105.993 170.886H106.525L104.789 176.08Z" fill="#F2F2FF"/>
<path d="M166.9 158.096C166.473 158.096 166.079 158.019 165.716 157.864C165.353 157.709 165.036 157.493 164.764 157.216C164.492 156.939 164.279 156.613 164.124 156.24C163.975 155.867 163.9 155.459 163.9 155.016C163.9 154.573 163.972 154.165 164.116 153.792C164.265 153.413 164.473 153.088 164.74 152.816C165.012 152.539 165.329 152.325 165.692 152.176C166.055 152.021 166.449 151.944 166.876 151.944C167.303 151.944 167.684 152.016 168.02 152.16C168.361 152.304 168.649 152.496 168.884 152.736C169.119 152.971 169.287 153.229 169.388 153.512L168.42 153.976C168.308 153.667 168.119 153.416 167.852 153.224C167.585 153.032 167.26 152.936 166.876 152.936C166.503 152.936 166.172 153.024 165.884 153.2C165.601 153.376 165.38 153.619 165.22 153.928C165.065 154.237 164.988 154.6 164.988 155.016C164.988 155.432 165.068 155.797 165.228 156.112C165.393 156.421 165.62 156.664 165.908 156.84C166.196 157.016 166.527 157.104 166.9 157.104C167.204 157.104 167.484 157.045 167.74 156.928C167.996 156.805 168.201 156.635 168.356 156.416C168.511 156.192 168.588 155.928 168.588 155.624V155.168L169.084 155.6H166.876V154.68H169.676V155.28C169.676 155.739 169.599 156.144 169.444 156.496C169.289 156.848 169.079 157.144 168.812 157.384C168.551 157.619 168.255 157.797 167.924 157.92C167.593 158.037 167.252 158.096 166.9 158.096ZM173.473 158.096C173.036 158.096 172.628 158.019 172.249 157.864C171.87 157.709 171.54 157.493 171.257 157.216C170.974 156.939 170.753 156.613 170.593 156.24C170.438 155.861 170.361 155.453 170.361 155.016C170.361 154.573 170.438 154.165 170.593 153.792C170.748 153.419 170.966 153.093 171.249 152.816C171.532 152.539 171.862 152.325 172.241 152.176C172.62 152.021 173.03 151.944 173.473 151.944C173.916 151.944 174.326 152.021 174.705 152.176C175.084 152.331 175.414 152.547 175.697 152.824C175.98 153.096 176.198 153.419 176.353 153.792C176.513 154.165 176.593 154.573 176.593 155.016C176.593 155.453 176.513 155.861 176.353 156.24C176.193 156.613 175.972 156.939 175.689 157.216C175.406 157.493 175.076 157.709 174.697 157.864C174.324 158.019 173.916 158.096 173.473 158.096ZM173.473 157.104C173.766 157.104 174.036 157.053 174.281 156.952C174.526 156.845 174.74 156.699 174.921 156.512C175.108 156.325 175.249 156.104 175.345 155.848C175.446 155.592 175.497 155.315 175.497 155.016C175.497 154.717 175.446 154.443 175.345 154.192C175.249 153.936 175.108 153.715 174.921 153.528C174.74 153.336 174.526 153.189 174.281 153.088C174.036 152.987 173.766 152.936 173.473 152.936C173.185 152.936 172.918 152.987 172.673 153.088C172.428 153.189 172.212 153.336 172.025 153.528C171.844 153.715 171.702 153.936 171.601 154.192C171.5 154.443 171.449 154.717 171.449 155.016C171.449 155.315 171.5 155.592 171.601 155.848C171.702 156.104 171.844 156.325 172.025 156.512C172.212 156.699 172.428 156.845 172.673 156.952C172.918 157.053 173.185 157.104 173.473 157.104ZM180.496 158.096C180.059 158.096 179.651 158.019 179.272 157.864C178.894 157.709 178.563 157.493 178.28 157.216C177.998 156.939 177.776 156.613 177.616 156.24C177.462 155.861 177.384 155.453 177.384 155.016C177.384 154.573 177.462 154.165 177.616 153.792C177.771 153.419 177.99 153.093 178.272 152.816C178.555 152.539 178.886 152.325 179.264 152.176C179.643 152.021 180.054 151.944 180.496 151.944C180.939 151.944 181.35 152.021 181.728 152.176C182.107 152.331 182.438 152.547 182.72 152.824C183.003 153.096 183.222 153.419 183.376 153.792C183.536 154.165 183.616 154.573 183.616 155.016C183.616 155.453 183.536 155.861 183.376 156.24C183.216 156.613 182.995 156.939 182.712 157.216C182.43 157.493 182.099 157.709 181.72 157.864C181.347 158.019 180.939 158.096 180.496 158.096ZM180.496 157.104C180.79 157.104 181.059 157.053 181.304 156.952C181.55 156.845 181.763 156.699 181.944 156.512C182.131 156.325 182.272 156.104 182.368 155.848C182.47 155.592 182.52 155.315 182.52 155.016C182.52 154.717 182.47 154.443 182.368 154.192C182.272 153.936 182.131 153.715 181.944 153.528C181.763 153.336 181.55 153.189 181.304 153.088C181.059 152.987 180.79 152.936 180.496 152.936C180.208 152.936 179.942 152.987 179.696 153.088C179.451 153.189 179.235 153.336 179.048 153.528C178.867 153.715 178.726 153.936 178.624 154.192C178.523 154.443 178.472 154.717 178.472 155.016C178.472 155.315 178.523 155.592 178.624 155.848C178.726 156.104 178.867 156.325 179.048 156.512C179.235 156.699 179.451 156.845 179.696 156.952C179.942 157.053 180.208 157.104 180.496 157.104ZM184.584 158V152.04H186.528C187.157 152.04 187.704 152.168 188.168 152.424C188.637 152.675 189 153.024 189.256 153.472C189.512 153.915 189.64 154.429 189.64 155.016C189.64 155.597 189.512 156.115 189.256 156.568C189 157.016 188.637 157.368 188.168 157.624C187.704 157.875 187.157 158 186.528 158H184.584ZM185.672 157.04H186.552C186.957 157.04 187.306 156.957 187.6 156.792C187.898 156.621 188.13 156.387 188.296 156.088C188.461 155.784 188.544 155.427 188.544 155.016C188.544 154.6 188.461 154.243 188.296 153.944C188.13 153.645 187.898 153.413 187.6 153.248C187.306 153.083 186.957 153 186.552 153H185.672V157.04ZM192.984 158V153H191.44V152.04H195.6V153H194.08V158H192.984ZM196.264 158V152.04H197.352V154.64H199.888V152.04H200.984V158H199.888V155.6H197.352V158H196.264ZM202.131 158V152.04H204.347C204.752 152.04 205.109 152.115 205.419 152.264C205.733 152.408 205.979 152.621 206.155 152.904C206.331 153.181 206.419 153.52 206.419 153.92C206.419 154.331 206.32 154.68 206.123 154.968C205.931 155.256 205.669 155.469 205.339 155.608L206.707 158H205.475L204.011 155.384L204.715 155.8H203.219V158H202.131ZM203.219 154.84H204.363C204.56 154.84 204.731 154.803 204.875 154.728C205.019 154.648 205.131 154.539 205.211 154.4C205.291 154.261 205.331 154.101 205.331 153.92C205.331 153.733 205.291 153.573 205.211 153.44C205.131 153.301 205.019 153.195 204.875 153.12C204.731 153.04 204.56 153 204.363 153H203.219V154.84ZM209.716 158.096C209.257 158.096 208.849 158 208.492 157.808C208.14 157.616 207.862 157.352 207.66 157.016C207.457 156.68 207.356 156.299 207.356 155.872V152.04H208.444V155.816C208.444 156.061 208.497 156.283 208.604 156.48C208.716 156.677 208.868 156.832 209.06 156.944C209.252 157.051 209.47 157.104 209.716 157.104C209.966 157.104 210.185 157.051 210.372 156.944C210.564 156.832 210.713 156.677 210.82 156.48C210.932 156.283 210.988 156.061 210.988 155.816V152.04H212.076V155.872C212.076 156.299 211.974 156.68 211.772 157.016C211.569 157.352 211.289 157.616 210.932 157.808C210.58 158 210.174 158.096 209.716 158.096Z" fill="#F2F2FF"/>
<path d="M165.922 180V171.194H163.906V169.57H167.826V180H165.922ZM174.102 180.168C173.272 180.168 172.544 179.944 171.918 179.496C171.293 179.048 170.803 178.418 170.448 177.606C170.103 176.794 169.93 175.851 169.93 174.778C169.93 173.695 170.103 172.753 170.448 171.95C170.794 171.147 171.279 170.522 171.904 170.074C172.53 169.626 173.258 169.402 174.088 169.402C174.938 169.402 175.67 169.626 176.286 170.074C176.912 170.522 177.402 171.152 177.756 171.964C178.111 172.767 178.288 173.705 178.288 174.778C178.288 175.851 178.111 176.794 177.756 177.606C177.411 178.409 176.926 179.039 176.3 179.496C175.675 179.944 174.942 180.168 174.102 180.168ZM174.116 178.432C174.592 178.432 174.998 178.287 175.334 177.998C175.67 177.699 175.927 177.279 176.104 176.738C176.291 176.187 176.384 175.534 176.384 174.778C176.384 174.022 176.291 173.373 176.104 172.832C175.927 172.281 175.666 171.861 175.32 171.572C174.984 171.283 174.574 171.138 174.088 171.138C173.622 171.138 173.22 171.283 172.884 171.572C172.548 171.861 172.287 172.281 172.1 172.832C171.923 173.373 171.834 174.022 171.834 174.778C171.834 175.525 171.923 176.173 172.1 176.724C172.287 177.265 172.548 177.685 172.884 177.984C173.23 178.283 173.64 178.432 174.116 178.432ZM179.283 181.68L183.931 170.13H185.933L181.285 181.68H179.283ZM186.785 180V178.558L189.613 175.604C190.173 175.016 190.602 174.549 190.901 174.204C191.209 173.849 191.423 173.546 191.545 173.294C191.666 173.042 191.727 172.785 191.727 172.524C191.727 172.085 191.587 171.74 191.307 171.488C191.036 171.236 190.686 171.11 190.257 171.11C189.809 171.11 189.421 171.241 189.095 171.502C188.768 171.754 188.53 172.127 188.381 172.622L186.715 172.104C186.827 171.553 187.055 171.077 187.401 170.676C187.746 170.265 188.166 169.953 188.661 169.738C189.165 169.514 189.697 169.402 190.257 169.402C190.929 169.402 191.517 169.523 192.021 169.766C192.534 170.009 192.931 170.349 193.211 170.788C193.5 171.227 193.645 171.74 193.645 172.328C193.645 172.701 193.575 173.07 193.435 173.434C193.295 173.798 193.085 174.171 192.805 174.554C192.525 174.927 192.161 175.347 191.713 175.814L189.263 178.39H193.785V180H186.785ZM198.918 180.168C198.162 180.168 197.504 180.028 196.944 179.748C196.393 179.459 195.964 179.071 195.656 178.586C195.357 178.101 195.208 177.569 195.208 176.99C195.208 176.309 195.39 175.735 195.754 175.268C196.118 174.792 196.645 174.442 197.336 174.218L197.224 174.68C196.729 174.521 196.337 174.213 196.048 173.756C195.768 173.299 195.628 172.795 195.628 172.244C195.628 171.693 195.768 171.203 196.048 170.774C196.328 170.345 196.715 170.009 197.21 169.766C197.705 169.523 198.274 169.402 198.918 169.402C199.553 169.402 200.113 169.523 200.598 169.766C201.093 170.009 201.48 170.345 201.76 170.774C202.049 171.203 202.194 171.693 202.194 172.244C202.194 172.804 202.049 173.313 201.76 173.77C201.48 174.218 201.093 174.526 200.598 174.694L200.5 174.204C201.191 174.447 201.718 174.806 202.082 175.282C202.446 175.749 202.628 176.323 202.628 177.004C202.628 177.583 202.474 178.115 202.166 178.6C201.867 179.076 201.438 179.459 200.878 179.748C200.327 180.028 199.674 180.168 198.918 180.168ZM198.918 178.558C199.282 178.558 199.599 178.493 199.87 178.362C200.141 178.222 200.351 178.031 200.5 177.788C200.649 177.536 200.724 177.251 200.724 176.934C200.724 176.607 200.649 176.327 200.5 176.094C200.351 175.851 200.141 175.665 199.87 175.534C199.599 175.394 199.282 175.324 198.918 175.324C198.554 175.324 198.237 175.394 197.966 175.534C197.705 175.665 197.499 175.851 197.35 176.094C197.201 176.327 197.126 176.607 197.126 176.934C197.126 177.251 197.201 177.536 197.35 177.788C197.499 178.031 197.705 178.222 197.966 178.362C198.237 178.493 198.554 178.558 198.918 178.558ZM198.918 173.714C199.189 173.714 199.427 173.653 199.632 173.532C199.837 173.411 199.996 173.252 200.108 173.056C200.229 172.851 200.29 172.617 200.29 172.356C200.29 172.095 200.229 171.866 200.108 171.67C199.996 171.465 199.837 171.306 199.632 171.194C199.427 171.073 199.189 171.012 198.918 171.012C198.647 171.012 198.405 171.073 198.19 171.194C197.985 171.306 197.821 171.465 197.7 171.67C197.588 171.866 197.532 172.095 197.532 172.356C197.532 172.617 197.588 172.851 197.7 173.056C197.821 173.252 197.985 173.411 198.19 173.532C198.405 173.653 198.647 173.714 198.918 173.714Z" fill="#F2F2FF"/>
<circle cx="279" cy="165" r="14" fill="#E33A24"/>
<circle cx="299" cy="165" r="14" fill="#F8CB2E" fill-opacity="0.8"/>
<defs>
<linearGradient id="paint0_linear_18_6913" x1="328" y1="-1.53458e-05" x2="0.423238" y2="208.664" gradientUnits="userSpaceOnUse">
<stop stop-color="#B3E2FE"/>
<stop offset="0.291667" stop-color="#B0B6FD"/>
<stop offset="0.565451" stop-color="#9DA1FB"/>
<stop offset="0.932292" stop-color="#A671FC"/>
</linearGradient>
</defs>
</svg>
