<svg width="360" height="360" viewBox="0 0 360 360" fill="none" xmlns="http://www.w3.org/2000/svg">
<mask id="mask0_2048_880" style="mask-type:alpha" maskUnits="userSpaceOnUse" x="0" y="0" width="360" height="360">
<rect width="360" height="360" fill="white"/>
</mask>
<g mask="url(#mask0_2048_880)">
<path d="M152.111 297.629C148.71 297.629 145.658 297.516 143.035 297.291C135.002 296.6 133.355 295.059 132.819 293.793C132.471 292.975 132.264 291.365 134.784 289.792C140.932 285.949 174.742 282.873 218.302 279.251C228.928 278.368 238.964 277.532 246.422 276.801C255.172 275.943 258.206 275.426 259.229 275.149C259.404 273.839 259.481 268.093 254.913 244.652C251.718 228.257 247.355 209.059 243.528 194.55C239.126 177.861 235.694 156.705 233.588 141.896C231.093 124.34 229.618 109.744 229.496 104.924C229.419 101.916 228.676 100.953 228.124 100.491C225.966 98.6828 220.07 99.5802 210.298 101.067C208.711 101.308 207.071 101.558 205.295 101.819C199.598 102.658 198.072 103.554 197.688 103.885C197.887 104.189 198.388 104.662 198.678 104.936C199.48 105.691 200.578 106.725 200.065 108.084C199.536 109.488 197.843 109.664 196.155 109.722C194.549 109.779 193.121 109.225 192.025 108.122C189.183 105.263 189.009 99.5168 189.246 93.7337C189.255 93.5043 189.264 93.2928 189.271 93.1029C189.296 92.3931 189.325 91.6881 189.352 90.988C189.61 84.4617 189.854 78.2986 187.936 71.9288C185.78 64.7645 181.684 59.3936 176.576 56.9501C179.186 61.714 181.065 67.7456 182.162 74.8885C184.157 87.8909 184.466 95.7399 184.376 100.035C184.216 107.552 182.918 108.201 182.365 108.478C182.07 108.626 181.79 108.765 176.66 109.157C174.662 109.31 170.589 109.595 165.772 109.799C149.47 110.487 147.551 109.3 146.829 108.853C146.136 108.424 145.738 107.763 145.738 107.035V106.933C145.735 100.811 146.157 94.4817 146.956 88.6329C148.549 76.9914 151.497 68.1125 155.718 62.2433C159.844 56.508 164.429 53.2413 169.236 52.5471C167.877 51.314 166.423 50.4166 164.88 49.8622C160.002 48.107 154.269 49.9901 148.303 55.3084C135.114 67.0634 135.546 87.7702 135.805 100.142C135.856 102.584 135.9 104.693 135.817 106.283C135.733 107.904 134.994 109.182 133.678 109.983C131.17 111.508 126.516 111.177 119.451 108.969C114.062 107.286 108.587 104.915 105.804 103.652C105.794 103.647 105.789 103.645 105.773 103.652C105.758 103.661 105.758 103.667 105.755 103.679C102.885 122.261 110.964 176.939 117.454 220.872C120.124 238.937 122.645 256.001 124.138 268.651C126.466 288.366 125.568 291.089 124.353 292.304C122.071 294.587 118.754 295.465 114.495 294.914C110.997 294.462 107.552 293.146 105.267 292.193C100.271 290.115 95.2168 287.175 89.8124 283.204C84.7833 279.509 81.8045 275.37 80.716 270.559C75.5184 272.739 72.1728 273.487 70.0507 271.9C67.8677 270.266 68.0135 266.84 68.4424 263.702C69.525 255.8 89.3632 131.577 93.3301 106.755C93.6396 104.822 92.8342 102.91 91.2295 101.766C89.2257 100.337 86.8958 99.254 84.107 98.457C73.7775 95.5057 62.5877 97.752 51.7658 99.9231L50.9916 100.078C48.2135 100.635 45.4343 101.196 42.6539 101.756C5.60857 109.221 -32.6985 116.94 -71.2684 117.112C-84.8539 117.173 -95.7403 116.448 -105.532 114.831C-118.232 112.734 -128.913 109.158 -138.183 103.9C-138.957 103.46 -139.229 102.475 -138.79 101.701C-138.35 100.926 -137.365 100.654 -136.591 101.094C-116.31 112.601 -91.0349 113.975 -71.284 113.886C-33.0283 113.715 5.12107 106.028 42.0158 98.5932C44.7974 98.0328 47.5779 97.4724 50.3571 96.9156L51.1302 96.7603C61.8074 94.6179 73.9089 92.1888 84.9924 95.3552C88.1408 96.2549 90.7934 97.4928 93.1019 99.1393C95.7102 101 97.0186 104.113 96.5156 107.264C92.551 132.08 72.7164 256.272 71.6387 264.14C71.0867 268.167 71.696 269.103 71.9828 269.318C72.2146 269.491 72.8813 269.716 74.7322 269.259C76.0776 268.928 77.7922 268.308 80.1664 267.288C79.5379 261.993 80.0588 256.644 80.5654 251.445C80.6622 250.455 80.7614 249.429 80.851 248.432C81.8762 236.92 83.8788 224.58 86.9723 210.704C87.1694 209.822 87.3642 208.933 87.5613 208.04C89.3691 199.824 91.2391 191.33 94.8189 183.739C94.8619 183.648 94.9097 183.539 94.9623 183.42C95.451 182.314 96.1906 180.643 97.6483 180.21C98.3365 180.006 99.063 180.119 99.6939 180.529C101.41 181.644 101.514 184.575 101.112 189.26C101.08 189.641 101.051 189.971 101.044 190.149C100.125 212.206 98.4118 229.854 95.9528 242.603C93.0362 257.726 89.0334 266.447 83.7294 269.223C83.7545 269.354 83.7808 269.485 83.8083 269.615C84.6722 273.735 87.259 277.332 91.7194 280.608C96.8406 284.371 101.814 287.267 106.502 289.218C114.223 292.43 119.297 292.715 122.005 290.088C122.13 289.816 122.518 288.535 122.269 283.44C122.089 279.74 121.614 274.716 120.817 268.079C119.317 255.585 116.86 238.954 114.259 221.347C107.397 174.899 99.6186 122.254 102.564 103.19C102.722 102.172 103.33 101.308 104.236 100.819C105.14 100.329 106.197 100.293 107.134 100.719C109.85 101.952 115.185 104.263 120.409 105.895C128.628 108.463 131.252 107.685 131.998 107.231C132.285 107.056 132.556 106.801 132.591 106.121C132.667 104.648 132.624 102.592 132.575 100.213C132.446 94.0026 132.268 85.4976 133.872 76.8719C134.757 72.1069 136.113 67.7982 137.899 64.0643C140.007 59.6612 142.784 55.907 146.152 52.9043C154.873 45.1306 161.743 45.311 165.968 46.8309C168.853 47.8692 171.45 49.8168 173.721 52.6427C174.596 52.8016 175.475 53.0429 176.357 53.3679C179.993 54.7026 183.172 57.1186 185.808 60.549C188.028 63.4382 189.831 67.0538 191.02 71.004C193.093 77.8912 192.84 84.3171 192.57 91.1206C192.543 91.8172 192.515 92.5186 192.49 93.2235C192.483 93.4195 192.474 93.6358 192.465 93.8712C192.356 96.5321 192.068 103.6 194.309 105.854C194.688 106.237 195.125 106.445 195.66 106.495C194.843 105.606 194.068 104.407 194.518 102.982C195.181 100.874 198.166 99.616 204.821 98.635C206.589 98.3746 208.226 98.126 209.808 97.8847C221.199 96.1521 226.916 95.2823 230.19 98.0257C231.831 99.3997 232.632 101.567 232.716 104.849C232.932 113.396 238.429 162.594 246.643 193.735C250.61 208.773 255.084 228.53 258.317 245.294C259.968 253.854 261.198 261.156 261.873 266.411C262.998 275.176 262.428 276.63 261.689 277.44C261.171 278.008 260.358 278.346 256.905 278.855C254.767 279.169 251.755 279.521 247.698 279.926C240.111 280.684 229.645 281.554 218.565 282.475C201.702 283.878 182.588 285.467 166.918 287.196C144.953 289.621 138.247 291.438 136.489 292.537C136.38 292.605 136.286 292.669 136.206 292.726C137.047 293.12 139.22 293.813 144.481 294.178C150.169 294.572 157.724 294.469 166.327 293.879C187.397 292.433 212.603 288.248 237.301 282.094C240.656 281.258 244.112 280.834 247.574 280.834H685.387C686.278 280.834 687 281.555 687 282.447C687 283.338 686.278 284.06 685.387 284.06H247.574C244.374 284.06 241.18 284.452 238.081 285.224C212.604 291.572 186.713 295.821 165.174 297.188C160.438 297.488 156.04 297.638 152.106 297.638L152.111 297.629ZM98.0522 184.41C97.996 184.532 97.9494 184.64 97.9136 184.718C97.849 184.865 97.7893 184.998 97.7379 185.108C94.3135 192.371 92.4829 200.685 90.7134 208.727C90.5162 209.623 90.3191 210.515 90.1219 211.4C87.0583 225.136 85.0772 237.341 84.0652 248.711C83.9756 249.722 83.874 250.753 83.7772 251.751C83.3268 256.366 82.8655 261.102 83.2503 265.696C86.1669 263.428 89.828 257.326 92.7864 241.983C95.2156 229.392 96.9099 211.904 97.8215 190.007C97.8323 189.758 97.861 189.413 97.8992 188.977C97.9817 188.011 98.0952 186.689 98.0892 185.442C98.0868 185.035 98.0725 184.695 98.051 184.411L98.0522 184.41ZM148.964 106.256C150.082 106.54 153.75 107.054 165.172 106.59C172.132 106.308 178.511 105.802 180.582 105.566C180.822 104.677 181.159 102.574 181.163 98.6757C181.167 92.7181 180.43 84.8775 178.971 75.3736C177.925 68.5498 176.061 62.6113 173.581 58.2011C173.068 57.2883 172.532 56.4423 171.977 55.6656C167.206 55.3239 162.629 58.1545 158.336 64.124C149.887 75.8707 149.006 98.5383 148.964 106.257V106.256Z" fill="white"/>
<g clip-path="url(#clip0_2048_880)">
<path d="M215.415 314L273.059 286.811L194.652 165.842L131 183.765L215.415 314Z" fill="#A5A3FF"/>
<path d="M151.212 183.759L184.807 174.825C188.861 178.174 190.828 178.022 195.811 178.345L258.652 274.968C256.17 277.822 256.178 283.835 256.76 287.849L227.133 301.763C223.287 298.942 218.676 297.225 214.154 296.932L148.498 195.638C151.234 192.494 152.221 188.22 151.212 183.759Z" fill="#E8E8FF"/>
<path d="M187.114 239.528C193.045 248.679 205.43 253.327 214.776 249.911C224.121 246.495 226.891 236.308 220.96 227.158C215.029 218.007 202.644 213.359 193.299 216.775C183.953 220.191 181.183 230.378 187.114 239.528Z" stroke="#0E0F29" stroke-width="4" stroke-linecap="round" stroke-linejoin="round"/>
<path d="M224.354 287.158L282 259.969L203.591 139L139.939 156.922L224.354 287.158Z" fill="#A5A3FF"/>
<path d="M160.151 156.917L193.745 147.983C197.799 151.332 199.767 151.18 204.749 151.503L267.591 248.125C265.108 250.98 265.116 256.992 265.698 261.006L236.072 274.921C232.226 272.1 227.615 270.383 223.093 270.09L157.436 168.795C160.172 165.651 161.16 161.378 160.151 156.917Z" fill="#E8E8FF"/>
<path d="M196.053 212.686C201.983 221.836 214.368 226.484 223.714 223.069C233.06 219.653 235.83 209.465 229.899 200.315C223.968 191.165 211.583 186.517 202.237 189.933C192.891 193.348 190.122 203.536 196.053 212.686Z" stroke="#0E0F29" stroke-width="4" stroke-linecap="round" stroke-linejoin="round"/>
<path d="M153.628 178.042L224.354 287.158L248.266 275.879" stroke="#0E0F29" stroke-width="4" stroke-linecap="round" stroke-linejoin="round"/>
</g>
<g clip-path="url(#clip1_2048_880)">
<path d="M234.134 74.263C240.167 71.1413 250.062 63.6639 253.279 47.3546C253.625 45.5909 256.125 45.5272 256.546 47.2741C259.164 58.1414 264.786 70.5444 275.503 73.4549C277.064 73.8807 277.521 75.7987 276.314 76.9857C271.539 81.6733 261.408 89.9386 258.454 108.424C258.107 110.597 254.827 110.469 254.339 108.323C251.967 97.8417 246.553 83.9567 234.235 78.0553C232.643 77.2941 232.566 75.0677 234.134 74.2563V74.263Z" fill="#FFD25A"/>
</g>
</g>
<defs>
<clipPath id="clip0_2048_880">
<rect width="151" height="175" fill="white" transform="translate(131 139)"/>
</clipPath>
<clipPath id="clip1_2048_880">
<rect width="44" height="64" fill="white" transform="translate(233 46)"/>
</clipPath>
</defs>
</svg>
