<svg width="360" height="360" viewBox="0 0 360 360" fill="none" xmlns="http://www.w3.org/2000/svg">
<mask id="mask0_2048_817" style="mask-type:alpha" maskUnits="userSpaceOnUse" x="0" y="0" width="360" height="360">
<rect width="360" height="360" fill="white"/>
</mask>
<g mask="url(#mask0_2048_817)">
<path d="M160.253 332.898H-163.37C-163.719 332.898 -164 332.616 -164 332.267C-164 331.919 -163.719 331.637 -163.37 331.637H159.498C158.992 328.759 157.242 317.927 156.998 304.533C156.843 295.987 154.445 291.624 150.094 283.701C146.661 277.452 141.96 268.894 136.451 254.419C135.298 251.9 134.213 249.621 133.163 247.416C130.258 241.315 127.963 236.496 127.251 232.714C126.466 228.533 127.614 225.724 130.975 223.608C134.321 221.502 133.639 219.716 132.509 216.756C131.315 213.63 129.832 209.744 133.329 204.388C134.375 202.013 134.636 199.842 134.912 197.546C135.494 192.695 136.097 187.677 144.664 181.3C146.282 180.097 147.79 178.984 149.222 177.946C149.21 176.211 148.927 174.538 148.308 172.791C146.806 168.548 144.137 163.639 141.555 158.892C137.898 152.164 134.113 145.207 133.473 139.83C133.042 136.207 132.137 131.394 131.178 126.299C129.738 118.642 128.106 109.963 127.464 102.265L127.41 101.611C126.651 92.5247 126.193 87.0405 128.694 84.944C129.831 83.9917 131.511 83.8265 133.831 84.4413C136.836 85.2367 138.598 86.2632 139.376 87.6707C140.222 89.2 139.721 90.8091 139.236 92.3664C139.155 92.6283 139.071 92.8986 138.995 93.1619C138.176 96.03 137.968 100.366 145.576 104.891C147.096 105.794 148.944 108.085 150.884 111.065C151.011 110.355 151.283 110.037 151.548 109.855C152.573 109.149 153.851 110.368 154.272 110.768C156.474 112.866 170.216 122.302 183.503 131.429C197.313 140.913 211.592 150.72 214.964 153.657C215.104 153.779 215.241 153.895 215.377 154.006C213.894 144.204 206.794 129.04 179.954 116.3C167.109 110.203 157.873 105.21 151.719 101.037C145.663 96.9305 142.417 93.5442 141.499 90.3764C140.953 88.4914 141.236 86.71 142.362 84.9286C146.489 78.4053 149.675 74.6003 149.706 74.5625C149.915 74.3132 150.28 74.2656 150.546 74.4505L155.617 77.9614L157.593 75.2403L152.402 71.6244C152.122 71.4297 152.048 71.0488 152.234 70.7631C152.359 70.5726 164.713 51.6148 167.684 47.1585C169.198 44.887 171.067 43.719 173.241 43.6868C175.026 43.6588 177.001 44.3884 179.285 45.9107C180.888 46.9793 193.186 55.5822 207.427 65.5436C227.175 79.3576 251.751 96.5495 255.013 98.6824C257.441 100.271 258.665 101.698 258.98 103.31C259.434 105.63 257.943 108.007 255.615 111.368C253.091 115.014 246.563 123.904 240.248 132.503C238.917 134.315 237.616 136.087 236.381 137.77C237.017 137.34 237.672 136.987 238.342 136.719C241.472 135.458 244.617 136.175 246.974 138.683C251.101 143.077 248.553 148.611 245.854 154.471C243.851 158.818 241.781 163.313 241.781 168.077C241.781 175.068 239.391 181.824 235.617 185.696C236.017 187.822 236.244 190.368 236.203 193.615C236.115 200.631 235.619 204.79 235.182 208.459C234.568 213.621 234.037 218.079 234.915 228.738C235.575 236.751 234.194 246.092 230.81 256.499C228.039 265.025 224.406 272.803 221.552 278.625C216.664 288.594 220.063 325.236 220.555 330.24H523.718C524.067 330.24 524.349 330.521 524.349 330.87C524.349 331.219 524.067 331.5 523.718 331.5H371.852H295.5H219.985C219.663 331.5 219.391 331.256 219.357 330.936C219.346 330.832 218.259 320.383 217.844 308.734C217.282 293.018 218.149 282.701 220.419 278.07C224.469 269.809 235.224 247.867 233.657 228.842C233.033 221.258 233.114 216.774 233.433 212.962C233.171 213.283 232.873 213.567 232.541 213.808C231.845 214.31 231.079 214.567 230.275 214.582C229.214 215.107 227.747 215.336 225.893 215.261C216.944 214.903 215.016 212.046 209.864 204.408C208.62 202.565 207.211 200.477 205.457 198.053C201.346 192.377 197.597 188.901 193.453 187.371C194.865 188.853 196.149 190.693 197.3 192.885C199.307 196.704 201.222 200.33 202.91 203.527C210.885 218.625 215.698 227.738 216.243 230.827C216.484 232.193 216.156 234.249 215.81 236.425C215.201 240.252 214.51 244.59 216.746 245.632C217.653 246.054 218.652 246.081 219.546 245.756C220.087 243.417 219.58 240.01 219.24 237.733C218.881 235.323 218.747 234.421 219.496 234.132C220.192 233.864 220.769 234.628 221.508 235.736C224.392 240.061 223.71 243.592 222.111 245.456C221.672 245.968 221.157 246.374 220.597 246.669C220.331 247.48 219.929 248.179 219.343 248.7C218.24 249.683 216.645 249.903 214.6 249.352C205.19 246.819 203.028 241.36 200.29 234.449C199.904 233.476 199.51 232.48 199.083 231.46C201.553 237.439 203.087 242.402 202.734 246.259C202.448 249.389 200.842 250.513 199.544 250.906C196.134 251.936 190.811 249.004 186.598 243.775C183.167 239.514 180.317 238.295 178.026 237.314C176.24 236.55 174.698 235.89 173.665 234.03C173.421 233.592 173.196 233.186 172.989 232.808C172.49 234.663 171.353 235.966 169.732 236.569C171.13 237.083 172.376 238.01 173.424 239.342C175.64 242.157 179.083 244.938 182.729 247.882C187.354 251.618 192.598 255.853 196.516 261.116C201.051 267.205 203.084 273.694 202.735 280.954C202.098 294.216 195.672 305.251 187.109 307.792C183.486 308.866 179.702 308.423 175.862 306.475C171.699 304.362 167.58 300.509 163.622 295.023C153.763 281.354 146.269 269.866 141.743 258.223C136.723 245.308 135.665 232.985 138.414 219.44C140.838 207.501 143.548 199.274 145.725 192.665C147.54 187.154 148.86 183.148 149.157 179.551C147.974 180.415 146.732 181.334 145.415 182.313C137.281 188.366 136.738 192.898 136.162 197.697C135.886 199.999 135.601 202.381 134.459 204.947C134.445 204.978 134.429 205.009 134.41 205.037C131.23 209.877 132.534 213.292 133.685 216.308C134.805 219.244 135.865 222.02 131.646 224.675C125.555 228.511 128.477 234.648 134.298 246.875C135.353 249.089 136.444 251.38 137.603 253.915C137.609 253.928 137.615 253.94 137.619 253.953C143.1 268.358 147.779 276.876 151.196 283.095C155.498 290.926 158.095 295.653 158.256 304.509C158.537 320 160.847 332.027 160.869 332.147C160.905 332.332 160.856 332.524 160.737 332.668C160.618 332.814 160.439 332.898 160.251 332.898H160.253ZM150.465 178.6C150.34 182.691 148.89 187.093 146.925 193.057C144.758 199.635 142.061 207.824 139.652 219.69C133.779 248.624 146.307 268.858 164.646 294.283C168.485 299.605 172.451 303.329 176.434 305.349C179.977 307.148 183.448 307.562 186.752 306.582C194.81 304.191 200.866 293.626 201.478 280.891C202.23 265.25 191.449 256.542 181.937 248.861C178.235 245.871 174.738 243.046 172.434 240.119C170.721 237.943 168.667 237.283 166.716 237.355C165.25 238.246 164.323 240.377 163.352 242.605C161.823 246.117 160.088 250.099 155.693 249.581C153.877 249.368 153.445 248.232 153.35 247.575C152.908 244.527 157.542 239.236 162.533 237.093C163.856 236.524 165.132 236.199 166.342 236.114C166.822 235.869 167.353 235.714 167.95 235.669C169.783 235.533 171.022 234.61 171.632 232.925C171.868 232.273 171.975 231.596 172 230.974C170.787 228.668 170.63 227.989 171.049 227.514C171.164 227.384 171.496 227.106 172.092 227.346C172.878 227.661 173.271 229.136 173.266 230.675C173.732 231.553 174.276 232.53 174.768 233.418C175.592 234.9 176.822 235.426 178.523 236.156C180.814 237.136 183.953 238.479 187.58 242.983C191.417 247.746 196.295 250.571 199.18 249.698C200.527 249.291 201.301 248.095 201.479 246.143C201.985 240.607 198.215 232.31 193.441 221.807C193.082 221.019 192.719 220.22 192.354 219.412C188.861 214.658 184.614 210.71 180.055 209.444C177.844 208.829 175.074 208.515 172.176 208.534C169.174 209.148 166.371 210.022 164.262 210.68C161.166 211.647 160.335 211.879 159.837 211.391C159.631 211.189 159.558 210.891 159.645 210.592C159.861 209.847 160.743 209.217 162.341 208.664C163.704 208.192 165.486 207.814 167.497 207.567C169.025 207.381 170.562 207.282 172.06 207.268C174.058 206.864 176.148 206.574 178.202 206.53C184.661 206.385 188.997 208.738 191.098 213.518C191.879 215.295 192.654 217.022 193.415 218.705C196.186 222.483 198.19 226.361 199.461 229.173C200.217 230.844 200.849 232.441 201.461 233.983C204.171 240.822 206.129 245.763 214.926 248.133C216.534 248.565 217.738 248.439 218.503 247.756C218.684 247.595 218.842 247.404 218.979 247.189C218.061 247.318 217.104 247.186 216.212 246.77C213.114 245.328 213.884 240.49 214.564 236.223C214.893 234.155 215.204 232.2 214.999 231.043C214.488 228.15 209.438 218.587 201.794 204.112C200.105 200.914 198.19 197.288 196.183 193.468C194.502 190.268 192.661 188.1 190.813 186.666C187.073 186.034 182.925 186.808 177.882 188.827C176.953 189.198 174.13 190.328 173.479 188.849C172.888 187.509 175.114 185.464 177.609 184.262C179.377 183.41 182.961 182.156 187.085 183.352C188.597 183.79 190.019 184.506 191.35 185.496C191.923 185.608 192.486 185.751 193.042 185.923C197.613 187.348 201.883 190.965 206.477 197.312C208.245 199.753 209.661 201.851 210.908 203.701C215.938 211.155 217.632 213.668 225.944 214C226.651 214.028 227.285 214.011 227.847 213.949C226.97 213.488 226.088 212.781 225.235 211.833C219.946 205.957 223.577 200.938 225.32 198.525C225.608 198.127 225.857 197.782 226.008 197.522C226.018 197.466 226.059 196.991 224.94 195.392C224.125 194.227 222.868 192.706 221.102 190.741C217.752 187.016 213.085 182.272 207.679 176.778C206.05 175.123 204.367 173.412 202.654 171.663C189.791 158.521 187.459 158.998 175.609 164.128C165.454 168.523 159.743 171.884 150.461 178.6H150.465ZM164.509 237.722C163.991 237.87 163.495 238.052 163.033 238.251C158.387 240.245 154.277 245.172 154.601 247.395C154.651 247.739 154.835 248.211 155.843 248.33C159.309 248.738 160.714 245.515 162.199 242.102C162.883 240.532 163.579 238.935 164.509 237.722ZM220.297 236.188C220.35 236.61 220.423 237.09 220.49 237.545C220.808 239.68 221.224 242.468 220.973 244.835C221.036 244.77 221.098 244.703 221.158 244.634C222.457 243.122 222.957 240.173 220.464 236.435C220.405 236.347 220.349 236.264 220.297 236.188ZM178.484 207.791C179.151 207.916 179.789 208.063 180.394 208.231C183.752 209.164 187.101 211.431 190.365 214.977C190.225 214.662 190.087 214.345 189.947 214.026C187.815 209.176 183.334 207.738 178.484 207.791ZM186.545 159.505C187.354 159.505 188.15 159.594 188.951 159.781C193.12 160.757 197.464 164.554 203.56 170.782C205.272 172.529 206.955 174.241 208.582 175.895C214.118 181.522 218.899 186.38 222.28 190.161C227.051 195.497 227.666 197.169 227.113 198.137C226.93 198.457 226.659 198.831 226.347 199.264C224.56 201.734 221.569 205.87 226.176 210.99C227.481 212.441 228.796 213.229 229.978 213.312C230.327 213.093 230.59 212.825 230.77 212.507C232.121 210.087 228.663 204.946 227.187 202.75C227.085 202.597 226.988 202.454 226.9 202.323C226.518 201.748 226.117 201.015 226.42 200.436C226.577 200.137 226.885 199.96 227.264 199.953C227.271 199.953 227.28 199.953 227.287 199.953C228.787 199.953 232.219 202.659 233.978 205.737C234.054 205.869 234.122 206.002 234.187 206.139C234.541 202.979 234.874 199.211 234.946 193.599C234.981 190.845 234.814 188.611 234.512 186.716C232.337 188.502 229.935 189.261 227.547 188.916C224.718 188.507 221.832 186.363 219.42 182.879C215.513 177.235 213.865 169.596 215.222 163.417C215.501 162.149 215.933 159.418 215.589 155.732C215.12 155.417 214.637 155.043 214.137 154.608C210.819 151.719 196.569 141.932 182.789 132.468C168.846 122.893 155.678 113.849 153.402 111.681C152.66 110.974 152.321 110.91 152.252 110.904C152.127 111.04 151.98 111.632 152.133 113.055C155.655 118.857 159.309 126.39 161.739 131.655C164.237 137.065 166.79 142.995 168.745 147.925C171.724 155.436 171.531 155.961 171.427 156.244C171.312 156.557 171.004 156.739 170.681 156.685C170.322 156.625 169.371 156.466 164.519 147.513C161.46 141.871 158.292 135.293 156.043 129.918C154.094 125.256 152.52 120.683 151.612 117.041C151.244 115.563 151.023 114.393 150.908 113.463C148.441 109.428 146.398 106.846 144.932 105.973C138.658 102.242 136.319 97.9388 137.783 92.8159C137.862 92.5387 137.948 92.26 138.032 91.9911C138.456 90.627 138.858 89.3386 138.273 88.2813C137.68 87.21 136.122 86.3529 133.507 85.6611C131.612 85.1597 130.301 85.2409 129.502 85.9117C127.502 87.5895 127.964 93.1254 128.663 101.507L128.718 102.161C129.353 109.795 130.979 118.44 132.415 126.067C133.377 131.184 134.286 136.017 134.723 139.682C135.335 144.817 139.058 151.667 142.66 158.29C145.265 163.079 147.958 168.033 149.495 172.37C150.058 173.959 150.359 175.498 150.444 177.061C159.302 170.702 165.215 167.253 175.109 162.97C179.887 160.902 183.317 159.504 186.541 159.504L186.545 159.505ZM227.78 201.355C227.826 201.433 227.88 201.522 227.948 201.624C228.035 201.754 228.13 201.895 228.232 202.047C229.988 204.659 233.163 209.379 232.136 212.509C233.496 211.211 234.096 208.483 232.883 206.362C231.373 203.719 228.914 201.865 227.778 201.355H227.78ZM174.652 188.301C174.85 188.346 175.56 188.401 177.418 187.659C181.681 185.953 185.24 185.145 188.437 185.197C185.273 183.706 182.292 184.027 180.289 184.593C176.773 185.586 174.784 187.673 174.654 188.303L174.652 188.301ZM216.963 156.497C217.117 159.003 216.946 161.448 216.456 163.686C215.17 169.54 216.741 176.791 220.46 182.16C222.639 185.307 225.288 187.315 227.731 187.668C229.841 187.974 231.991 187.238 233.949 185.544C234.048 185.457 234.148 185.369 234.246 185.278C233.61 182.316 232.621 180.208 231.599 178.03C229.714 174.013 227.764 169.857 227.654 160.147C227.598 155.214 228.355 150.632 229.857 146.746C229.534 147.201 229.221 147.648 228.911 148.089C225.448 153.018 222.945 156.581 219.779 156.966C218.863 157.077 217.937 156.927 216.964 156.499L216.963 156.497ZM241.374 137.364C240.542 137.364 239.684 137.536 238.817 137.887C233.947 139.847 228.771 147.644 228.913 160.13C229.021 169.566 230.91 173.597 232.739 177.493C233.702 179.544 234.636 181.537 235.293 184.19C238.513 180.47 240.525 174.388 240.525 168.075C240.525 163.033 242.75 158.203 244.712 153.941C247.338 148.241 249.604 143.319 246.06 139.545C244.706 138.102 243.095 137.364 241.375 137.364H241.374ZM216.834 155.021C217.842 155.597 218.754 155.819 219.623 155.713C222.234 155.396 224.601 152.027 227.876 147.363C228.655 146.256 229.46 145.11 230.345 143.892C232.733 140.609 235.89 136.31 239.233 131.757C245.542 123.165 252.065 114.282 254.579 110.651C256.657 107.648 258.101 105.382 257.742 103.552C257.501 102.318 256.415 101.105 254.322 99.737C251.044 97.5929 226.459 80.3954 206.704 66.5757C192.47 56.6186 180.178 48.0198 178.586 46.9583C174.155 44.0047 171.116 44.282 168.733 47.8559C166.041 51.8934 155.627 67.8642 153.623 70.9381L158.333 74.2194L166.625 62.7973C166.829 62.5158 167.223 62.4528 167.504 62.6573L180.806 72.312C180.942 72.41 181.033 72.5599 181.058 72.7265C181.083 72.8932 181.041 73.0626 180.942 73.1971L172.36 84.7816C172.157 85.0561 171.773 85.1177 171.493 84.923L158.624 75.9587L156.273 79.198C156.071 79.4753 155.686 79.5411 155.404 79.3464L150.305 75.8159C149.367 76.9853 146.699 80.4234 143.424 85.6008C142.501 87.0587 142.267 88.5054 142.707 90.0235C144.377 95.7961 156.031 103.548 180.491 115.159C195.644 122.351 206.302 131.156 212.169 141.327C214.494 145.359 216.003 149.524 216.653 153.709C216.722 154.147 216.779 154.584 216.828 155.021H216.834ZM152.847 116.776C152.854 116.801 152.86 116.828 152.867 116.855C153.765 120.417 155.306 124.883 157.207 129.431C159.407 134.691 162.394 140.913 165.405 146.501C167.221 149.873 168.598 152.175 169.542 153.607C168.156 149.61 164.743 141.122 160.345 131.642C157.635 125.799 155.105 120.791 152.847 116.776ZM159.371 74.9392L171.717 83.5394L179.555 72.9576L167.279 64.0479L159.371 74.9392Z" fill="white" stroke="white"/>
<g clip-path="url(#clip0_2048_817)">
<path d="M84.458 277.388C90.1036 274.423 99.364 267.322 102.374 251.832C102.699 250.157 105.038 250.096 105.432 251.756C107.881 262.077 113.143 273.856 123.172 276.621C124.633 277.025 125.061 278.847 123.93 279.974C119.462 284.426 109.982 292.276 107.217 309.832C106.893 311.896 103.823 311.775 103.366 309.737C101.146 299.782 96.0799 286.595 84.5524 280.99C83.0631 280.267 82.9907 278.152 84.458 277.382V277.388Z" fill="#A5A3FF"/>
</g>
<g clip-path="url(#clip1_2048_817)">
<path d="M139.863 103.199L210.776 158.969C215.964 163.049 222.999 162.178 226.409 157.033L257.337 110.369C260.748 105.224 259.294 97.6761 254.105 93.5964L183.191 37.8257C178.002 33.746 170.968 34.6169 167.557 39.7618L136.629 86.4255C133.219 91.5703 134.673 99.1184 139.861 103.198L139.863 103.199Z" fill="#FFD25A"/>
<path d="M173.687 38.8397L142.758 85.5034C139.348 90.6483 140.802 98.1964 145.99 102.276L216.904 158.046C217.589 158.586 218.307 159.038 219.045 159.405" stroke="#0E0F29" stroke-width="4" stroke-linecap="round" stroke-linejoin="round"/>
<path d="M176.745 82.1277L169.819 76.7883C168.54 75.8027 168.31 73.7215 169.307 72.1657L173.871 65.0449C174.867 63.489 176.73 63.0215 178.011 64.0083L184.937 69.3477C186.216 70.3334 186.446 72.4145 185.449 73.9704L180.885 81.0911C179.888 82.647 178.025 83.1145 176.745 82.1277Z" fill="white"/>
<path d="M182.087 113.625L154.577 92.4165C152.814 91.0569 152.496 88.1901 153.871 86.0455C155.246 83.901 157.813 83.2572 159.577 84.6168L187.086 105.826C188.85 107.185 189.167 110.052 187.792 112.196C186.418 114.341 183.85 114.985 182.087 113.625Z" fill="white"/>
<path d="M220.827 143.492L193.317 122.283C191.553 120.923 191.236 118.057 192.611 115.912C193.985 113.767 196.553 113.124 198.316 114.483L225.826 135.692C227.59 137.052 227.907 139.918 226.532 142.063C225.158 144.208 222.59 144.851 220.827 143.492Z" fill="white"/>
<path d="M135.373 96.6179L140.375 95.5505" stroke="#0E0F29" stroke-width="4" stroke-linecap="round" stroke-linejoin="round"/>
<path d="M233.5 107.497C231.121 110.851 226.65 111.599 223.514 109.164C220.376 106.731 219.763 102.039 222.142 98.6848C224.521 95.3309 228.992 94.5826 232.128 97.0173C235.266 99.4506 235.879 104.143 233.5 107.497Z" stroke="#0E0F29" stroke-width="4" stroke-linecap="round" stroke-linejoin="round"/>
<path d="M176.533 38.8447L243.452 91.5667" stroke="#0E0F29" stroke-width="4" stroke-linecap="round" stroke-linejoin="round"/>
</g>
</g>
<defs>
<clipPath id="clip0_2048_817">
<rect width="41.1759" height="60.7835" fill="white" transform="translate(83.397 250.546)"/>
</clipPath>
<clipPath id="clip1_2048_817">
<rect width="120.941" height="81.6547" fill="white" transform="translate(177.459 28) rotate(40.3667)"/>
</clipPath>
</defs>
</svg>
