<svg width="360" height="360" viewBox="0 0 360 360" fill="none" xmlns="http://www.w3.org/2000/svg">
<mask id="mask0_2048_848" style="mask-type:alpha" maskUnits="userSpaceOnUse" x="0" y="0" width="360" height="360">
<rect width="360" height="360" fill="white"/>
</mask>
<g mask="url(#mask0_2048_848)">
<path d="M-161.365 318.243C-173.176 318.243 -185.395 317.138 -198.675 314.875C-211.365 312.712 -225.23 309.484 -242.306 304.716C-242.811 304.575 -243.106 304.052 -242.965 303.547C-242.823 303.042 -242.301 302.749 -241.796 302.889C-174.975 321.54 -138.529 320.927 -79.3076 300.15C-15.3948 277.727 32.0435 273.258 74.5038 285.656C105.019 294.567 158.583 304.111 197.14 295.462C182.315 296.291 166.743 296.48 152.239 294.898C141.05 293.678 131.308 291.459 123.281 288.302C114.127 284.701 106.836 279.74 101.61 273.561C90.5199 260.446 85.9437 243.066 88.3792 223.299C89.615 213.268 92.6486 202.743 97.3938 192.02C102.305 180.924 109.047 169.629 117.431 158.447C117.436 158.439 117.443 158.432 117.45 158.423C123.935 150.317 130.452 143.863 136.2 138.17C146.804 127.67 153.809 120.732 151.079 112.964C149.674 109.173 149.748 106.341 151.31 104.321C151.573 103.98 151.878 103.665 152.227 103.375C151.939 103.042 151.723 102.67 151.589 102.255C149.972 97.2663 140.963 84.9405 135.002 76.7842C133.453 74.6641 132.115 72.8336 131.034 71.3134C128.7 68.0315 128.787 64.4394 131.262 61.9402C132.88 60.3061 135.374 59.3443 138.103 59.3013C141.107 59.2547 144.182 60.2665 146.999 62.228C150.067 64.3636 153.221 64.9962 156.374 64.1085C161.14 62.7658 165.742 57.9585 168.686 51.2484C171.209 45.4948 175.406 41.6976 179.91 41.0892C182.708 40.7117 186.929 41.3529 191.147 46.5514C195.163 51.5017 198.648 54.444 202.112 55.8109C206.022 57.3535 210.107 56.8985 214.6 54.4199C220.811 50.9933 225.559 50.1366 228.713 51.8706C231.028 53.1444 232.319 55.7109 232.552 59.5012C232.923 65.5564 224.246 77.1186 217.274 86.4108C214.025 90.7406 211.218 94.4792 210.036 96.7165C209.907 96.9595 209.883 97.0922 209.877 97.1457C210.001 97.2474 210.674 97.618 213.759 97.4404C216.22 97.2991 219.632 96.8578 223.582 96.3493C233.757 95.0376 247.691 93.2433 262.886 93.9793C271.222 94.3827 279.053 95.5341 286.161 97.399C294.488 99.5846 302.108 102.822 308.811 107.02C349.058 132.236 385.56 132.518 453.463 108.137C469.719 102.301 485.449 97.83 500.212 94.8498C515.148 91.8351 529.187 90.3269 541.93 90.3717C554.971 90.4148 566.764 92.0833 576.985 95.3289C587.544 98.6814 596.531 103.754 603.696 110.404C604.081 110.761 604.103 111.361 603.746 111.743C603.391 112.128 602.79 112.15 602.407 111.793C588.544 98.9262 568.193 92.3557 541.924 92.2677C516.511 92.1885 486.971 98.123 454.105 109.923C437.063 116.042 422.624 120.439 409.962 123.364C396.243 126.534 384.102 128.111 372.845 128.185C361.21 128.259 350.389 126.741 339.759 123.536C329.181 120.348 318.729 115.471 307.806 108.627C279.718 91.0284 243.359 95.7133 223.827 98.2316C213.699 99.5364 209.54 99.9949 208.304 98.2126C207.993 97.7662 207.752 96.9905 208.362 95.834C209.614 93.464 212.461 89.6702 215.758 85.2766C222.186 76.7118 230.989 64.9807 230.661 59.6219C230.472 56.5227 229.51 54.475 227.802 53.5374C225.29 52.1567 221.043 53.0375 215.519 56.0849C210.5 58.8548 205.887 59.3443 201.419 57.5811C197.638 56.0884 193.906 52.9651 189.676 47.7511C186.777 44.178 183.487 42.5267 180.167 42.9749C176.323 43.4937 172.681 46.8738 170.425 52.0171C167.257 59.2409 162.198 64.4446 156.891 65.9407C153.164 66.9904 149.472 66.2665 145.918 63.7914C140.607 60.0924 135.099 60.7681 132.611 63.2794C130.776 65.1341 130.764 67.6644 132.582 70.2206C133.656 71.7305 134.99 73.5575 136.536 75.6725C142.929 84.42 151.684 96.3993 153.395 101.675C153.473 101.917 153.633 102.143 153.873 102.355C157.01 100.879 162.191 100.581 169.987 101.369C176.947 102.072 186.515 101.165 194.956 100.365C205.779 99.3399 211.503 98.8831 213.121 100.555C213.504 100.95 213.676 101.467 213.607 102.01C213.397 103.663 211.67 105.719 200.082 106.95C196.878 107.289 193.436 107.513 190.15 107.658C192.205 108.439 193.987 109.447 195.375 110.757C195.404 110.785 195.433 110.816 195.459 110.847C198.331 114.37 200.64 117.564 202.333 120.317C202.312 120.027 202.297 119.741 202.288 119.457C202.121 114.363 204.082 113.703 204.932 113.656C206.799 113.557 208.457 115.945 208.705 119.105C209.036 123.318 213.831 127.796 218.468 132.127C226.599 139.721 238.516 152.097 249.118 167.929C260.691 185.214 268.047 202.633 270.982 219.704C274.462 239.943 270.612 258.555 260.139 272.11C250.269 284.884 235.187 292.476 216.524 294.064C213.283 294.34 209.953 294.608 206.563 294.855C205.803 295.101 205.032 295.339 204.251 295.57C192.069 299.168 177.223 300.903 160.128 300.743C121.051 300.367 84.3079 290.496 73.9763 287.479C31.9193 275.198 -15.1604 279.659 -78.6768 301.943C-110.323 313.045 -135.423 318.071 -160.061 318.241C-160.493 318.245 -160.928 318.247 -161.362 318.247L-161.365 318.243ZM118.941 159.599C102.656 181.315 92.74 203.422 90.2614 223.534C87.8931 242.761 92.3177 259.637 103.058 272.339C112.643 283.674 128.797 290.437 152.444 293.016C169.859 294.915 188.87 294.236 206.247 292.976C217.982 289.134 227.772 283.181 234.295 274.452C235.76 272.492 236.116 270.881 235.384 269.524C234.131 267.201 229.713 265.41 222.622 264.276C218.794 265.867 214.693 266.801 210.451 267.004C194.718 267.839 175.682 266.797 172.369 263.655C171.824 263.14 171.711 262.614 171.711 262.264V251.443C171.15 251.495 170.597 251.519 170.051 251.519C160.986 251.519 153.886 244.819 153.561 244.505C153.288 244.243 153.197 243.845 153.328 243.49L158.844 228.667C158.94 228.408 159.142 228.205 159.4 228.11C159.657 228.014 159.945 228.034 160.186 228.165C170.23 233.643 178.167 235.536 182.539 233.493C184.49 232.581 185.724 230.89 186.208 228.467C187.301 223 181.241 220.285 174.224 217.141C172.473 216.357 170.661 215.545 168.953 214.674C159.326 209.762 154.498 201.943 154.993 192.065C154.993 192.057 154.993 192.048 154.993 192.039C155.508 185.348 158.737 179.562 164.332 175.306C167.564 172.848 170.682 171.571 172.021 171.09V159.88C172.021 159.356 172.445 158.932 172.969 158.932H188.342C188.866 158.932 189.29 159.356 189.29 159.88V170.259C199.413 171.776 204.281 176.053 204.488 176.239C204.786 176.506 204.884 176.933 204.732 177.304L198.527 192.472C198.413 192.75 198.176 192.958 197.884 193.032C197.595 193.106 197.284 193.039 197.052 192.849C191.845 188.62 184.795 186.227 179.905 187.034C178.624 187.244 176.916 187.787 176.044 189.173C175.029 190.786 174.724 192.119 175.086 193.367C175.763 195.695 178.845 198.093 184.783 200.911C185.288 201.151 185.791 201.387 186.291 201.623C195.821 206.108 204.822 210.345 206.52 225.447C206.52 225.454 206.52 225.459 206.521 225.466C207.257 233.483 204.198 240.439 197.676 245.581C193.796 248.639 189.823 250.187 188.254 250.721V261.268C191.233 261.121 200.397 260.754 209.891 261.18C214.638 261.394 218.821 261.773 222.386 262.314C228.515 259.655 233.888 255.206 237.894 249.321C246.331 236.925 247.748 219.747 241.782 202.195C235.691 184.276 224.78 165.344 211.146 142.453C208.454 138.184 206.368 134.199 204.898 130.522C204.367 130.938 203.39 131.238 201.707 130.395C199.492 129.287 197.46 126.684 195.107 123.667C192.486 120.308 189.514 116.501 186.013 114.704C181.796 112.541 171.331 112.979 164.408 113.267C159.871 113.457 157.453 113.541 156.36 113.219C155.408 112.939 155.15 112.271 155.227 111.738C155.334 110.997 156.063 110.373 157.666 109.647C158.945 109.07 160.664 108.491 162.636 107.974C164.149 107.577 166.521 107.034 169.475 106.621C169.223 106.608 168.974 106.596 168.724 106.584C162.272 106.279 156.801 106.021 153.826 104.552C153.416 104.83 153.078 105.14 152.811 105.485C151.682 106.943 151.699 109.18 152.863 112.322C155.996 121.239 148.252 128.907 137.534 139.52C131.824 145.175 125.353 151.584 118.939 159.599H118.941ZM225.602 262.876C225.954 262.947 226.299 263.021 226.635 263.097C232.33 264.374 235.737 266.18 237.054 268.624C238.157 270.669 237.74 273.011 235.815 275.588C230.52 282.672 222.889 288.322 213.064 292.449C214.173 292.357 215.271 292.266 216.36 292.173C234.481 290.63 249.099 283.291 258.636 270.948C268.78 257.817 272.501 239.733 269.112 220.023C262.34 180.631 233.664 148.912 217.174 133.511C212.272 128.933 207.204 124.2 206.814 119.253C206.62 116.78 205.501 115.549 205.049 115.549C205.044 115.549 205.041 115.549 205.036 115.549C204.775 115.563 204.088 116.502 204.181 119.395C204.374 125.307 207.261 132.727 212.759 141.449C212.763 141.455 212.768 141.462 212.771 141.469C226.466 164.461 237.43 183.487 243.58 201.581C246.786 211.017 247.958 220.206 247.06 228.894C246.238 236.861 243.611 244.292 239.464 250.385C235.794 255.775 231.032 260.02 225.599 262.876H225.602ZM173.607 262.206C173.758 262.4 175.21 263.859 185.183 264.788C192.393 265.46 201.568 265.577 210.357 265.11C213.154 264.976 215.886 264.507 218.513 263.724C215.886 263.433 212.985 263.214 209.824 263.073C198.415 262.559 187.475 263.205 187.367 263.212C187.106 263.228 186.849 263.135 186.66 262.955C186.47 262.776 186.362 262.526 186.362 262.266V250.028C186.362 249.604 186.643 249.232 187.051 249.116C187.099 249.102 191.972 247.682 196.554 244.054C202.597 239.269 205.317 233.076 204.639 225.651C203.059 211.606 194.916 207.775 185.49 203.338C184.988 203.102 184.483 202.864 183.976 202.623C177.423 199.513 174.122 196.821 173.271 193.894C172.753 192.113 173.136 190.238 174.444 188.161C175.432 186.593 177.216 185.555 179.602 185.162C184.755 184.312 191.707 186.481 197.25 190.598L202.712 177.247C201.214 176.146 196.438 173.102 188.225 172.024C187.753 171.962 187.399 171.561 187.399 171.085V160.829H173.922V171.774C173.922 172.195 173.645 172.566 173.241 172.685C173.203 172.695 169.356 173.857 165.433 176.856C160.243 180.824 157.368 185.977 156.889 192.174C156.441 201.245 160.91 208.443 169.818 212.987C171.481 213.837 173.271 214.638 175.001 215.412C182.109 218.597 189.459 221.89 188.07 228.839C187.468 231.845 185.834 234.048 183.344 235.212C178.491 237.478 170.518 235.796 160.243 230.347L155.333 243.544C157.182 245.123 164.383 250.695 172.516 249.435C172.79 249.392 173.067 249.471 173.277 249.652C173.488 249.832 173.608 250.095 173.608 250.373V262.207L173.607 262.206ZM173.414 111.121C178.745 111.121 183.94 111.507 186.88 113.014C190.754 114.999 193.861 118.983 196.604 122.497C198.724 125.214 200.725 127.778 202.557 128.695C203.3 129.066 203.669 129.054 203.74 129.019C203.74 129.019 204.282 128.113 202.423 124.367C200.789 121.077 197.884 116.833 194.027 112.091C191.653 109.877 187.856 108.618 183.476 107.86C181.353 107.9 179.474 107.91 178.004 107.91C168.663 107.91 160.895 110.168 158.096 111.523C159.53 111.569 161.881 111.471 164.332 111.369C167.121 111.252 170.292 111.121 173.415 111.121H173.414ZM156.389 103.473C156.884 103.602 157.439 103.72 158.052 103.825C160.912 104.316 164.751 104.497 168.813 104.69C173.705 104.921 178.919 105.168 183.592 105.964C188.427 105.872 194.501 105.636 199.88 105.064C210.413 103.945 211.582 102.222 211.71 101.831C211.491 101.665 210.539 101.245 206.616 101.362C203.548 101.455 199.461 101.841 195.133 102.251C186.605 103.06 176.938 103.975 169.794 103.253C163.759 102.642 159.318 102.713 156.389 103.473Z" fill="white"/>
<g clip-path="url(#clip0_2048_848)">
<path d="M48.6169 156.963C55.7356 184.823 81.7787 202.537 106.787 196.53C131.794 190.521 146.296 163.066 139.177 135.206C132.059 107.345 106.016 89.6315 81.0077 95.6384C56.0006 101.648 41.4983 129.103 48.6169 156.963Z" fill="#FFD25A"/>
<path d="M58.6148 153.79C65.7335 181.651 91.7765 199.364 116.785 193.358C141.792 187.348 156.294 159.893 149.175 132.033C142.056 104.17 116.013 86.4558 91.0055 92.4656C65.9975 98.4725 51.4962 125.93 58.6148 153.79Z" fill="#FFD25A"/>
<path d="M110.785 161.637C106.814 162.338 102.339 161.289 99.0521 159.385L100.236 154.887C103.546 156.637 107.197 157.778 110.873 156.725C115.329 155.448 116.763 152.046 115.56 147.866C112.417 136.947 96.2917 144.127 92.5095 130.984C90.782 124.987 93.032 119.672 98.0236 117.292L96.646 112.506C96.3247 111.388 96.8724 110.252 97.8709 109.967C98.8693 109.682 99.9391 110.355 100.26 111.47L101.599 116.12C105.591 115.486 108.722 116.849 111.627 118.789L109.928 122.851C106.999 121.065 104.726 120.184 101.474 121.117C97.8019 122.171 96.1884 125.404 97.312 129.314C100.125 139.085 116.155 131.57 120.325 146.06C122.167 152.464 119.834 157.947 114.361 160.465L115.738 165.251C116.06 166.369 115.512 167.505 114.513 167.79C113.515 168.075 112.445 167.402 112.125 166.287L110.785 161.637Z" fill="white"/>
<path d="M69.1678 153.939C76.463 176.908 99.0119 190.244 119.536 183.725C140.059 177.206 148.865 153.956 141.57 130.987C134.274 108.018 113.645 94.0264 93.1216 100.546C72.5978 107.065 61.8725 130.97 69.1648 153.94L69.1678 153.939Z" stroke="#0E0F29" stroke-width="4" stroke-linecap="round" stroke-linejoin="round"/>
<path d="M89.759 93.2355C64.751 99.2424 50.2496 126.7 57.3683 154.56C64.4869 182.42 90.53 200.134 115.538 194.127" stroke="#0E0F29" stroke-width="4" stroke-linecap="round" stroke-linejoin="round"/>
</g>
<g clip-path="url(#clip1_2048_848)">
<path d="M259.288 241.237C266.144 237.677 277.389 229.148 281.044 210.545C281.438 208.533 284.279 208.461 284.757 210.453C287.732 222.849 294.121 236.996 306.298 240.316C308.073 240.801 308.593 242.989 307.22 244.343C301.794 249.69 290.282 259.117 286.925 280.202C286.531 282.681 282.803 282.535 282.249 280.088C279.553 268.132 273.401 252.294 259.403 245.563C257.595 244.695 257.507 242.155 259.288 241.23V241.237Z" fill="#A5A3FF"/>
</g>
</g>
<defs>
<clipPath id="clip0_2048_848">
<rect width="103.581" height="105.935" fill="white" transform="translate(34 109.177) rotate(-16.938)"/>
</clipPath>
<clipPath id="clip1_2048_848">
<rect width="50" height="73" fill="white" transform="translate(258 209)"/>
</clipPath>
</defs>
</svg>
