<svg width="17" height="30" viewBox="0 0 17 30" fill="none" xmlns="http://www.w3.org/2000/svg">
<path d="M10.9027 18.0258C13.8767 16.9979 16.0216 14.1592 16.0216 10.8554C16.0216 8.33475 14.8028 6.10774 12.9015 4.73729C13.0481 4.76176 13.2187 4.78623 13.3648 4.78623C14.4861 4.78623 15.4122 3.88075 15.4122 2.75502C15.4122 1.62929 14.4861 0.723816 13.3648 0.723816C12.2436 0.723816 11.3174 1.62929 11.3174 2.75502C11.3174 3.24447 11.488 3.70945 11.8048 4.07653C10.7811 3.56261 9.61078 3.26894 8.36794 3.26894C4.15078 3.26894 0.713806 6.67058 0.713806 10.8799C0.713806 15.0157 4.05332 18.3929 8.17281 18.4908C6.17395 19.3473 4.76019 21.3296 4.76019 23.63C4.76019 26.7135 7.2707 29.2097 10.3668 29.2097C13.4624 29.2097 15.9731 26.7135 15.9731 23.63C16.0216 20.6688 13.7791 18.2705 10.9027 18.0258ZM3.10262 10.8309C3.10262 7.91871 5.46707 5.56935 8.39196 5.56935C11.3174 5.56935 13.6815 7.94316 13.6815 10.8309C13.6815 13.7187 11.3174 16.1169 8.39196 16.1169C5.46707 16.1169 3.10262 13.7431 3.10262 10.8309ZM10.4153 26.8359C8.6116 26.8359 7.14911 25.3675 7.14911 23.581C7.14911 21.7946 8.6116 20.3262 10.4153 20.3262C12.219 20.3262 13.6815 21.7946 13.6815 23.581C13.6815 25.392 12.219 26.8359 10.4153 26.8359Z" fill="white"/>
</svg>
