<svg width="99" height="126" viewBox="0 0 99 126" fill="none" xmlns="http://www.w3.org/2000/svg">
<g opacity="0.1">
<path d="M49.5 14.2898C76.2668 14.2898 98 36.023 98 62.7898C98 89.5566 76.2668 111.29 49.5 111.29C22.7332 111.29 1 89.5566 1 62.7898C1 36.023 22.7332 14.2898 49.5 14.2898Z" fill="#CFB0FF" stroke="#6F2FD3" stroke-width="2"/>
</g>
<g opacity="0.5">
<path d="M49.5004 28.2247C68.5762 28.225 84.0648 43.7142 84.0648 62.7902C84.0646 81.8659 68.5761 97.3544 49.5004 97.3546C30.4245 97.3546 14.9352 81.866 14.9349 62.7902C14.9349 43.7141 30.4243 28.2247 49.5004 28.2247Z" fill="#CFB0FF" stroke="#6F2FD3" stroke-width="2"/>
</g>
<path d="M76.595 62.7891L49.4993 122.17L22.4046 62.7891L49.4993 3.4082L76.595 62.7891Z" fill="#CFB0FF" stroke="#6F2FD3" stroke-width="2"/>
<path d="M21.306 62.7897L49.4999 1L77.6938 62.7897L49.4999 124.579L21.306 62.7897Z" stroke="#6F2FD3" stroke-width="2" stroke-linecap="round" stroke-linejoin="round"/>
<path d="M21.306 62.7898H77.694" stroke="#6F2FD3" stroke-width="2" stroke-linecap="round" stroke-linejoin="round"/>
<path d="M49.4999 1L36.6008 62.7338L49.4999 124.579" stroke="#6F2FD3" stroke-width="2" stroke-linecap="round" stroke-linejoin="round"/>
<path d="M49.5 1L64.6817 62.7898L49.5 124.579" stroke="#6F2FD3" stroke-width="2" stroke-linecap="round" stroke-linejoin="round"/>
</svg>
