<svg width="26" height="29" viewBox="0 0 26 29" fill="none" xmlns="http://www.w3.org/2000/svg">
<path d="M13 21.4327C14.448 21.4327 15.6994 20.9341 16.7541 19.9368C17.8091 18.9398 18.375 17.7173 18.4518 16.2693H7.53363C7.61063 17.7173 8.17887 18.9398 9.23837 19.9368C10.2981 20.9341 11.552 21.4327 13 21.4327ZM5.93275 10.1684H11.3556C11.3556 9.42018 11.0884 8.77881 10.5539 8.24431C10.0191 7.70956 9.37775 7.44218 8.62975 7.44218C7.88175 7.44218 7.24525 7.70956 6.72025 8.24431C6.19525 8.77881 5.93275 9.42018 5.93275 10.1684ZM14.6444 10.1538H20.0673C20.0673 9.40581 19.8024 8.76693 19.2726 8.23718C18.7429 7.70718 18.1039 7.44218 17.3556 7.44218C16.6076 7.44218 15.9687 7.70718 15.439 8.23718C14.9092 8.76693 14.6444 9.40581 14.6444 10.1538ZM13 28.7163C11.2308 28.7163 9.57313 28.3793 8.02713 27.7053C6.48088 27.0313 5.13275 26.1193 3.98275 24.9693C2.83275 23.8193 1.92313 22.4664 1.25388 20.9107C0.584625 19.3547 0.25 17.6922 0.25 15.9232V0.216309H25.75V15.9232C25.75 17.6922 25.4154 19.3547 24.7461 20.9107C24.0769 22.4664 23.1672 23.8193 22.0173 24.9693C20.8673 26.1193 19.5191 27.0313 17.9729 27.7053C16.4269 28.3793 14.7692 28.7163 13 28.7163ZM13 26.4663C15.9 26.4663 18.375 25.4389 20.425 23.3842C22.475 21.3294 23.5 18.8424 23.5 15.9232V2.46631H2.5V15.9232C2.5 18.8424 3.52262 21.3294 5.56787 23.3842C7.61312 25.4389 10.0905 26.4663 13 26.4663Z" fill="#1C1B1F"/>
</svg>
