<svg width="32" height="33" viewBox="0 0 32 33" fill="none" xmlns="http://www.w3.org/2000/svg">
<path d="M16 32.2163C13.075 32.2163 10.4206 31.4922 8.03685 30.0439C5.65335 28.5959 3.78373 26.6556 2.42798 24.2228V28.6969H0.177979V20.4469H8.42798V22.6969H4.16723C5.25173 24.8817 6.8546 26.6394 8.97585 27.9702C11.0971 29.3009 13.4385 29.9663 16 29.9663C17.8365 29.9663 19.5591 29.6269 21.1679 28.9482C22.7764 28.2692 24.1845 27.3427 25.3922 26.1687C26.6 24.9947 27.5697 23.6082 28.3015 22.0092C29.0332 20.4102 29.428 18.6876 29.4857 16.8413H31.7354C31.6874 18.9721 31.2417 20.9702 30.3985 22.8357C29.5552 24.7009 28.4245 26.3307 27.0062 27.7249C25.588 29.1192 23.9341 30.2163 22.0446 31.0163C20.1551 31.8163 18.1402 32.2163 16 32.2163ZM14.9384 26.6779V24.7857C13.8404 24.5297 12.9274 24.0738 12.1994 23.4181C11.4716 22.7623 10.9135 21.8778 10.525 20.7646L12.4229 19.9913C12.7806 20.9683 13.2927 21.7107 13.9592 22.2184C14.6255 22.7259 15.3807 22.9797 16.225 22.9797C17.0787 22.9797 17.8451 22.7667 18.5241 22.3407C19.2029 21.9149 19.5422 21.2318 19.5422 20.2913C19.5422 19.5086 19.2505 18.8851 18.667 18.4208C18.0832 17.9563 16.9942 17.4317 15.4 16.8469C13.8577 16.2932 12.7452 15.6731 12.0625 14.9866C11.3797 14.3001 11.0384 13.3933 11.0384 12.2663C11.0384 11.2991 11.3875 10.4134 12.0857 9.60943C12.7837 8.80568 13.7596 8.29318 15.0134 8.07193V6.25468H17.0616V8.07193C17.9039 8.13743 18.6794 8.45431 19.3881 9.02256C20.0966 9.59081 20.6076 10.2739 20.9211 11.0719L19.0694 11.8163C18.8116 11.2606 18.4432 10.7986 17.9642 10.4303C17.4855 10.0621 16.8557 9.87793 16.075 9.87793C15.1422 9.87793 14.411 10.0991 13.8812 10.5413C13.3515 10.9836 13.0866 11.5586 13.0866 12.2663C13.0866 12.9741 13.3452 13.5251 13.8625 13.9193C14.3797 14.3136 15.4269 14.7799 17.0039 15.3184C18.8039 15.9684 20.0135 16.6972 20.6327 17.5047C21.252 18.3124 21.5616 19.2413 21.5616 20.2913C21.5616 21.0068 21.4294 21.6347 21.1649 22.1749C20.9004 22.7154 20.5547 23.1698 20.128 23.5381C19.701 23.9063 19.2149 24.1972 18.6696 24.4107C18.1244 24.6239 17.5634 24.7739 16.9866 24.8607V26.6779H14.9384ZM0.264603 16.0913C0.331853 13.9126 0.791854 11.8881 1.6446 10.0178C2.4976 8.14756 3.63798 6.52018 5.06573 5.13568C6.49373 3.75093 8.14523 2.66818 10.0202 1.88743C11.8952 1.10668 13.8885 0.716309 16 0.716309C18.8962 0.716309 21.5506 1.44281 23.9631 2.89581C26.3756 4.34856 28.2452 6.30581 29.572 8.76756V4.23568H31.822V12.4857H23.572V10.2357H27.8327C26.777 8.08943 25.1861 6.34131 23.0601 4.99131C20.9341 3.64131 18.5807 2.96631 16 2.96631C14.202 2.96631 12.501 3.30093 10.897 3.97018C9.29323 4.63943 7.88273 5.55618 6.66548 6.72043C5.44823 7.88493 4.46648 9.26668 3.72023 10.8657C2.97398 12.4647 2.57198 14.2066 2.51423 16.0913H0.264603Z" fill="#1C1B1F"/>
</svg>
