<svg width="16" height="28" viewBox="0 0 16 28" fill="none" xmlns="http://www.w3.org/2000/svg">
<path d="M6.75188 27.812V24.3384H9.42857V27.812H6.75188ZM6.75188 3.67671V0.187988H9.42857V3.67671H6.75188ZM8.30075 25.2857C6.83709 25.2857 5.5188 25.0251 4.34587 24.5038C3.18296 23.9725 2.22556 23.2256 1.47368 22.2632C0.721805 21.2907 0.230576 20.1479 0 18.8346L2.63158 18.3985C2.95238 19.7318 3.62907 20.7895 4.66165 21.5714C5.70426 22.3534 6.95739 22.7444 8.42105 22.7444C9.89474 22.7444 11.0877 22.3885 12 21.6767C12.9123 20.9649 13.3684 20.0476 13.3684 18.9248C13.3684 18.1028 13.1228 17.4411 12.6316 16.9399C12.1504 16.4386 11.3383 16.0125 10.1955 15.6617L5.24812 14.1278C2.29073 13.2055 0.81203 11.4411 0.81203 8.83461C0.81203 7.61155 1.10777 6.54388 1.69925 5.6316C2.30075 4.70929 3.13785 3.99751 4.21053 3.49626C5.29323 2.98498 6.55138 2.73435 7.98496 2.74438C9.37845 2.7544 10.6216 3.01506 11.7143 3.52633C12.807 4.02759 13.7093 4.74939 14.4211 5.69175C15.1429 6.6341 15.6291 7.76192 15.8797 9.07521L13.1729 9.57145C13.0326 8.71932 12.7218 7.97245 12.2406 7.33085C11.7694 6.68924 11.1679 6.193 10.4361 5.84212C9.70426 5.48122 8.88221 5.29576 7.96992 5.28573C7.11779 5.27571 6.35088 5.41606 5.66917 5.70679C4.99749 5.99751 4.46617 6.40353 4.07519 6.92483C3.68421 7.44613 3.48872 8.04262 3.48872 8.7143C3.48872 9.44613 3.7594 10.0677 4.30075 10.579C4.85213 11.0802 5.71429 11.5113 6.88722 11.8722L10.9474 13.0752C12.7318 13.6065 14.0201 14.3233 14.812 15.2256C15.604 16.1178 16 17.3108 16 18.8045C16 20.0978 15.6792 21.2306 15.0376 22.203C14.406 23.1755 13.5088 23.9324 12.3459 24.4737C11.193 25.0151 9.84461 25.2857 8.30075 25.2857Z" fill="white"/>
</svg>
