<svg width="32" height="29" viewBox="0 0 32 29" fill="none" xmlns="http://www.w3.org/2000/svg">
<path d="M0.25 15.9806V13.7309H3.20088C3.42588 10.4884 4.63888 7.74506 6.83988 5.50081C9.04087 3.25681 11.7192 2.00306 14.875 1.73956V0.216309H17.125V1.73956C20.2808 2.00306 22.9591 3.25681 25.1601 5.50081C27.3611 7.74506 28.5741 10.4884 28.7991 13.7309H31.75V15.9806H0.25ZM5.497 13.7309H26.503C26.278 10.9347 25.1626 8.60581 23.1569 6.74431C21.1511 4.88281 18.7655 3.95206 16 3.95206C13.2345 3.95206 10.8489 4.88281 8.84312 6.74431C6.83737 8.60581 5.722 10.9347 5.497 13.7309ZM20.3845 15.9806H9.82675V24.9663H18.325C18.85 24.9663 19.3563 24.8788 19.8438 24.7038C20.3312 24.5288 20.775 24.2663 21.175 23.9163L27.4 18.7788C27.1615 18.5308 26.8956 18.3448 26.6024 18.2208C26.3091 18.0966 26.001 18.0094 25.678 17.9594C25.2625 17.9037 24.8571 17.9283 24.4619 18.0333C24.0669 18.1381 23.6944 18.3279 23.3444 18.6029L19.9866 21.3029H13.4039V19.0529H19.1961L20.9759 17.6021C21.1106 17.5078 21.2069 17.3886 21.2646 17.2443C21.3221 17.1001 21.3365 16.9433 21.3078 16.7741C21.279 16.5433 21.1756 16.3534 20.9976 16.2044C20.8199 16.0552 20.6155 15.9806 20.3845 15.9806ZM7.57712 15.9663H4.46163C4.32688 15.9663 4.21625 16.0096 4.12975 16.0961C4.04325 16.1826 4 16.2932 4 16.4279V26.0047C4 26.1394 4.04325 26.2501 4.12975 26.3366C4.21625 26.4231 4.32688 26.4663 4.46163 26.4663H7.1155C7.25 26.4663 7.3605 26.4231 7.447 26.3366C7.53375 26.2501 7.57712 26.1394 7.57712 26.0047V15.9663ZM7.1155 28.7306H4.46163C3.70387 28.7306 3.0625 28.4681 2.5375 27.9431C2.0125 27.4181 1.75 26.7768 1.75 26.0193V16.4422C1.75 15.6847 2.0125 15.0434 2.5375 14.5184C3.0625 13.9934 3.70387 13.7309 4.46163 13.7309H20.3703C22.1682 13.7309 23.8889 14.0622 25.5321 14.7247C27.1754 15.3872 28.5345 16.4318 29.6095 17.8586L30.5065 19.1077L22.6345 25.6788C22.0267 26.1866 21.3513 26.5721 20.608 26.8353C19.8647 27.0988 19.1038 27.2306 18.325 27.2306H9.52975C9.30275 27.6806 8.97638 28.0431 8.55062 28.3181C8.12463 28.5931 7.64625 28.7306 7.1155 28.7306Z" fill="#1C1B1F"/>
</svg>
