<svg width="26" height="30" viewBox="0 0 26 30" fill="none" xmlns="http://www.w3.org/2000/svg">
<path d="M2.96163 29.7163C2.21362 29.7163 1.57463 29.4514 1.04463 28.9217C0.514875 28.3917 0.25 27.7527 0.25 27.0047V9.92793C0.25 9.17993 0.514875 8.54093 1.04463 8.01093C1.57463 7.48118 2.21362 7.21631 2.96163 7.21631H6.25C6.25 5.34331 6.90675 3.75006 8.22025 2.43656C9.53375 1.12306 11.127 0.466309 13 0.466309C14.873 0.466309 16.4663 1.12306 17.7798 2.43656C19.0933 3.75006 19.75 5.34331 19.75 7.21631H23.0384C23.7864 7.21631 24.4254 7.48118 24.9554 8.01093C25.4851 8.54093 25.75 9.17993 25.75 9.92793V27.0047C25.75 27.7527 25.4851 28.3917 24.9554 28.9217C24.4254 29.4514 23.7864 29.7163 23.0384 29.7163H2.96163ZM2.96163 27.4663H23.0384C23.1539 27.4663 23.2596 27.4182 23.3556 27.3219C23.4519 27.2259 23.5 27.1202 23.5 27.0047V9.92793C23.5 9.81243 23.4519 9.70668 23.3556 9.61068C23.2596 9.51443 23.1539 9.46631 23.0384 9.46631H2.96163C2.84612 9.46631 2.74038 9.51443 2.64438 9.61068C2.54813 9.70668 2.5 9.81243 2.5 9.92793V27.0047C2.5 27.1202 2.54813 27.2259 2.64438 27.3219C2.74038 27.4182 2.84612 27.4663 2.96163 27.4663ZM13 17.7163C14.873 17.7163 16.4663 17.0596 17.7798 15.7461C19.0933 14.4326 19.75 12.8393 19.75 10.9663H17.5C17.5 12.2163 17.0625 13.2788 16.1875 14.1538C15.3125 15.0288 14.25 15.4663 13 15.4663C11.75 15.4663 10.6875 15.0288 9.8125 14.1538C8.9375 13.2788 8.5 12.2163 8.5 10.9663H6.25C6.25 12.8393 6.90675 14.4326 8.22025 15.7461C9.53375 17.0596 11.127 17.7163 13 17.7163ZM8.5 7.21631H17.5C17.5 5.96631 17.0625 4.90381 16.1875 4.02881C15.3125 3.15381 14.25 2.71631 13 2.71631C11.75 2.71631 10.6875 3.15381 9.8125 4.02881C8.9375 4.90381 8.5 5.96631 8.5 7.21631Z" fill="#1C1B1F"/>
</svg>
