<svg width="26" height="27" viewBox="0 0 26 27" fill="none" xmlns="http://www.w3.org/2000/svg">
<path d="M7.77325 26.2163C5.67125 26.2163 3.89188 25.4879 2.43513 24.0312C0.978375 22.5744 0.25 20.7951 0.25 18.6931C0.25 17.8106 0.4005 16.9529 0.7015 16.1202C1.0025 15.2874 1.43375 14.5327 1.99525 13.8559L7.29137 7.48656L3.91337 0.716309H22.0866L18.7086 7.48656L24.0048 13.8559C24.5663 14.5327 24.9975 15.2874 25.2985 16.1202C25.5995 16.9529 25.75 17.8106 25.75 18.6931C25.75 20.7951 25.0177 22.5744 23.5532 24.0312C22.089 25.4879 20.3135 26.2163 18.2267 26.2163H7.77325ZM13 19.0767C12.252 19.0767 11.6131 18.8118 11.0834 18.2821C10.5534 17.7523 10.2884 17.1134 10.2884 16.3654C10.2884 15.6172 10.5534 14.9782 11.0834 14.4484C11.6131 13.9187 12.252 13.6538 13 13.6538C13.748 13.6538 14.3869 13.9187 14.9166 14.4484C15.4466 14.9782 15.7116 15.6172 15.7116 16.3654C15.7116 17.1134 15.4466 17.7523 14.9166 18.2821C14.3869 18.8118 13.748 19.0767 13 19.0767ZM9.35088 6.52881H16.6634L18.4375 2.96631H7.5625L9.35088 6.52881ZM7.77325 23.9663H18.2267C19.7 23.9663 20.9471 23.4533 21.9681 22.4273C22.9894 21.4013 23.5 20.1566 23.5 18.6931C23.5 18.0738 23.3938 17.4734 23.1813 16.8919C22.9688 16.3102 22.6654 15.7847 22.2711 15.3154L16.8306 8.77881H9.20687L3.74312 15.2922C3.34887 15.7614 3.04313 16.2908 2.82588 16.8803C2.60863 17.4696 2.5 18.0738 2.5 18.6931C2.5 20.1566 3.013 21.4013 4.039 22.4273C5.065 23.4533 6.30975 23.9663 7.77325 23.9663Z" fill="#1C1B1F"/>
</svg>
